<?xml version="1.0" encoding="UTF-8" standalone="no"?>
<!DOCTYPE svg PUBLIC "-//W3C//DTD SVG 1.1//EN"
 "http://www.w3.org/Graphics/SVG/1.1/DTD/svg11.dtd">
<!-- Generated by graphviz version 2.26.3 (20100126.1600)
 -->
<!-- Title: controllers_diagram Pages: 1 -->
<svg width="730pt" height="569pt"
 viewBox="0.00 0.00 730.00 569.00" xmlns="http://www.w3.org/2000/svg" xmlns:xlink="http://www.w3.org/1999/xlink">
<g id="graph1" class="graph" transform="scale(1 1) rotate(0) translate(4 565)">
<title>controllers_diagram</title>
<polygon fill="white" stroke="white" points="-4,5 -4,-565 727,-565 727,5 -4,5"/>
<!-- _diagram_info -->
<g id="node1" class="node"><title>_diagram_info</title>
<text text-anchor="start" x="129" y="-538.3" font-family="Times Roman,serif" font-size="13.00">Controllers diagram</text>
<text text-anchor="start" x="129" y="-521.3" font-family="Times Roman,serif" font-size="13.00">Date: Oct 07 2011 &#45; 11:45</text>
<text text-anchor="start" x="129" y="-504.3" font-family="Times Roman,serif" font-size="13.00">Migration version: 20111007162417</text>
<text text-anchor="start" x="129" y="-487.3" font-family="Times Roman,serif" font-size="13.00">Generated by RailRoady 1.0.2</text>
<text text-anchor="start" x="129" y="-470.3" font-family="Times Roman,serif" font-size="13.00">http://railroady.prestonlee.com</text>
</g>
<!-- ExercisesController -->
<g id="node2" class="node"><title>ExercisesController</title>
<polyline fill="none" stroke="black" points="413,-181.5 538,-181.5 "/>
<path fill="none" stroke="black" d="M538,-181.5C544,-181.5 550,-187.5 550,-193.5"/>
<polyline fill="none" stroke="black" points="550,-193.5 550,-379.5 "/>
<path fill="none" stroke="black" d="M550,-379.5C550,-385.5 544,-391.5 538,-391.5"/>
<polyline fill="none" stroke="black" points="538,-391.5 413,-391.5 "/>
<path fill="none" stroke="black" d="M413,-391.5C407,-391.5 401,-385.5 401,-379.5"/>
<polyline fill="none" stroke="black" points="401,-379.5 401,-193.5 "/>
<path fill="none" stroke="black" d="M401,-193.5C401,-187.5 407,-181.5 413,-181.5"/>
<text text-anchor="middle" x="475.5" y="-374.9" font-family="Times Roman,serif" font-size="14.00">ExercisesController</text>
<polyline fill="none" stroke="black" points="401,-365.5 550,-365.5 "/>
<text text-anchor="start" x="409" y="-348.9" font-family="Times Roman,serif" font-size="14.00">create</text>
<text text-anchor="start" x="409" y="-330.9" font-family="Times Roman,serif" font-size="14.00">destroy</text>
<text text-anchor="start" x="409" y="-312.9" font-family="Times Roman,serif" font-size="14.00">edit</text>
<text text-anchor="start" x="409" y="-294.9" font-family="Times Roman,serif" font-size="14.00">index</text>
<text text-anchor="start" x="409" y="-276.9" font-family="Times Roman,serif" font-size="14.00">new</text>
<text text-anchor="start" x="409" y="-258.9" font-family="Times Roman,serif" font-size="14.00">show</text>
<text text-anchor="start" x="409" y="-240.9" font-family="Times Roman,serif" font-size="14.00">update</text>
<polyline fill="none" stroke="black" points="401,-231.5 550,-231.5 "/>
<polyline fill="none" stroke="black" points="401,-207.5 550,-207.5 "/>
<text text-anchor="start" x="409" y="-190.9" font-family="Times Roman,serif" font-size="14.00">_layout</text>
</g>
<!-- SourceCodesController -->
<g id="node3" class="node"><title>SourceCodesController</title>
<polyline fill="none" stroke="black" points="193,-181.5 343,-181.5 "/>
<path fill="none" stroke="black" d="M343,-181.5C349,-181.5 355,-187.5 355,-193.5"/>
<polyline fill="none" stroke="black" points="355,-193.5 355,-379.5 "/>
<path fill="none" stroke="black" d="M355,-379.5C355,-385.5 349,-391.5 343,-391.5"/>
<polyline fill="none" stroke="black" points="343,-391.5 193,-391.5 "/>
<path fill="none" stroke="black" d="M193,-391.5C187,-391.5 181,-385.5 181,-379.5"/>
<polyline fill="none" stroke="black" points="181,-379.5 181,-193.5 "/>
<path fill="none" stroke="black" d="M181,-193.5C181,-187.5 187,-181.5 193,-181.5"/>
<text text-anchor="middle" x="268" y="-374.9" font-family="Times Roman,serif" font-size="14.00">SourceCodesController</text>
<polyline fill="none" stroke="black" points="181,-365.5 355,-365.5 "/>
<text text-anchor="start" x="189" y="-348.9" font-family="Times Roman,serif" font-size="14.00">create</text>
<text text-anchor="start" x="189" y="-330.9" font-family="Times Roman,serif" font-size="14.00">destroy</text>
<text text-anchor="start" x="189" y="-312.9" font-family="Times Roman,serif" font-size="14.00">edit</text>
<text text-anchor="start" x="189" y="-294.9" font-family="Times Roman,serif" font-size="14.00">index</text>
<text text-anchor="start" x="189" y="-276.9" font-family="Times Roman,serif" font-size="14.00">new</text>
<text text-anchor="start" x="189" y="-258.9" font-family="Times Roman,serif" font-size="14.00">show</text>
<text text-anchor="start" x="189" y="-240.9" font-family="Times Roman,serif" font-size="14.00">update</text>
<polyline fill="none" stroke="black" points="181,-231.5 355,-231.5 "/>
<polyline fill="none" stroke="black" points="181,-207.5 355,-207.5 "/>
<text text-anchor="start" x="189" y="-190.9" font-family="Times Roman,serif" font-size="14.00">_layout</text>
</g>
<!-- UsersController -->
<g id="node4" class="node"><title>UsersController</title>
<polyline fill="none" stroke="black" points="33,-221.5 133,-221.5 "/>
<path fill="none" stroke="black" d="M133,-221.5C139,-221.5 145,-227.5 145,-233.5"/>
<polyline fill="none" stroke="black" points="145,-233.5 145,-419.5 "/>
<path fill="none" stroke="black" d="M145,-419.5C145,-425.5 139,-431.5 133,-431.5"/>
<polyline fill="none" stroke="black" points="133,-431.5 33,-431.5 "/>
<path fill="none" stroke="black" d="M33,-431.5C27,-431.5 21,-425.5 21,-419.5"/>
<polyline fill="none" stroke="black" points="21,-419.5 21,-233.5 "/>
<path fill="none" stroke="black" d="M21,-233.5C21,-227.5 27,-221.5 33,-221.5"/>
<text text-anchor="middle" x="83" y="-414.9" font-family="Times Roman,serif" font-size="14.00">UsersController</text>
<polyline fill="none" stroke="black" points="21,-405.5 145,-405.5 "/>
<text text-anchor="start" x="29" y="-388.9" font-family="Times Roman,serif" font-size="14.00">create</text>
<text text-anchor="start" x="29" y="-370.9" font-family="Times Roman,serif" font-size="14.00">destroy</text>
<text text-anchor="start" x="29" y="-352.9" font-family="Times Roman,serif" font-size="14.00">edit</text>
<text text-anchor="start" x="29" y="-334.9" font-family="Times Roman,serif" font-size="14.00">index</text>
<text text-anchor="start" x="29" y="-316.9" font-family="Times Roman,serif" font-size="14.00">new</text>
<text text-anchor="start" x="29" y="-298.9" font-family="Times Roman,serif" font-size="14.00">show</text>
<text text-anchor="start" x="29" y="-280.9" font-family="Times Roman,serif" font-size="14.00">update</text>
<polyline fill="none" stroke="black" points="21,-271.5 145,-271.5 "/>
<polyline fill="none" stroke="black" points="21,-247.5 145,-247.5 "/>
<text text-anchor="start" x="29" y="-230.9" font-family="Times Roman,serif" font-size="14.00">_layout</text>
</g>
<!-- ApplicationController -->
<g id="node5" class="node"><title>ApplicationController</title>
<polyline fill="none" stroke="black" points="413,-421.5 618,-421.5 "/>
<path fill="none" stroke="black" d="M618,-421.5C624,-421.5 630,-427.5 630,-433.5"/>
<polyline fill="none" stroke="black" points="630,-433.5 630,-547.5 "/>
<path fill="none" stroke="black" d="M630,-547.5C630,-553.5 624,-559.5 618,-559.5"/>
<polyline fill="none" stroke="black" points="618,-559.5 413,-559.5 "/>
<path fill="none" stroke="black" d="M413,-559.5C407,-559.5 401,-553.5 401,-547.5"/>
<polyline fill="none" stroke="black" points="401,-547.5 401,-433.5 "/>
<path fill="none" stroke="black" d="M401,-433.5C401,-427.5 407,-421.5 413,-421.5"/>
<text text-anchor="middle" x="515.5" y="-542.9" font-family="Times Roman,serif" font-size="14.00">ApplicationController</text>
<polyline fill="none" stroke="black" points="401,-533.5 630,-533.5 "/>
<text text-anchor="start" x="409" y="-516.9" font-family="Times Roman,serif" font-size="14.00">_one_time_conditions_valid_8?</text>
<polyline fill="none" stroke="black" points="401,-507.5 630,-507.5 "/>
<polyline fill="none" stroke="black" points="401,-483.5 630,-483.5 "/>
<text text-anchor="start" x="409" y="-466.9" font-family="Times Roman,serif" font-size="14.00">_layout</text>
<text text-anchor="start" x="409" y="-448.9" font-family="Times Roman,serif" font-size="14.00">_run_process_action_callbacks</text>
<text text-anchor="start" x="409" y="-430.9" font-family="Times Roman,serif" font-size="14.00">current_user</text>
</g>
<!-- SessionsController -->
<g id="node6" class="node"><title>SessionsController</title>
<polyline fill="none" stroke="black" points="13,-41.5 133,-41.5 "/>
<path fill="none" stroke="black" d="M133,-41.5C139,-41.5 145,-47.5 145,-53.5"/>
<polyline fill="none" stroke="black" points="145,-53.5 145,-167.5 "/>
<path fill="none" stroke="black" d="M145,-167.5C145,-173.5 139,-179.5 133,-179.5"/>
<polyline fill="none" stroke="black" points="133,-179.5 13,-179.5 "/>
<path fill="none" stroke="black" d="M13,-179.5C7,-179.5 1,-173.5 1,-167.5"/>
<polyline fill="none" stroke="black" points="1,-167.5 1,-53.5 "/>
<path fill="none" stroke="black" d="M1,-53.5C1,-47.5 7,-41.5 13,-41.5"/>
<text text-anchor="middle" x="73" y="-162.9" font-family="Times Roman,serif" font-size="14.00">SessionsController</text>
<polyline fill="none" stroke="black" points="1,-153.5 145,-153.5 "/>
<text text-anchor="start" x="9" y="-136.9" font-family="Times Roman,serif" font-size="14.00">create</text>
<text text-anchor="start" x="9" y="-118.9" font-family="Times Roman,serif" font-size="14.00">destroy</text>
<text text-anchor="start" x="9" y="-100.9" font-family="Times Roman,serif" font-size="14.00">new</text>
<polyline fill="none" stroke="black" points="1,-91.5 145,-91.5 "/>
<polyline fill="none" stroke="black" points="1,-67.5 145,-67.5 "/>
<text text-anchor="start" x="9" y="-50.9" font-family="Times Roman,serif" font-size="14.00">_layout</text>
</g>
<!-- CoursesController -->
<g id="node7" class="node"><title>CoursesController</title>
<polyline fill="none" stroke="black" points="593,-1.5 709,-1.5 "/>
<path fill="none" stroke="black" d="M709,-1.5C715,-1.5 721,-7.5 721,-13.5"/>
<polyline fill="none" stroke="black" points="721,-13.5 721,-199.5 "/>
<path fill="none" stroke="black" d="M721,-199.5C721,-205.5 715,-211.5 709,-211.5"/>
<polyline fill="none" stroke="black" points="709,-211.5 593,-211.5 "/>
<path fill="none" stroke="black" d="M593,-211.5C587,-211.5 581,-205.5 581,-199.5"/>
<polyline fill="none" stroke="black" points="581,-199.5 581,-13.5 "/>
<path fill="none" stroke="black" d="M581,-13.5C581,-7.5 587,-1.5 593,-1.5"/>
<text text-anchor="middle" x="651" y="-194.9" font-family="Times Roman,serif" font-size="14.00">CoursesController</text>
<polyline fill="none" stroke="black" points="581,-185.5 721,-185.5 "/>
<text text-anchor="start" x="589" y="-168.9" font-family="Times Roman,serif" font-size="14.00">create</text>
<text text-anchor="start" x="589" y="-150.9" font-family="Times Roman,serif" font-size="14.00">destroy</text>
<text text-anchor="start" x="589" y="-132.9" font-family="Times Roman,serif" font-size="14.00">edit</text>
<text text-anchor="start" x="589" y="-114.9" font-family="Times Roman,serif" font-size="14.00">index</text>
<text text-anchor="start" x="589" y="-96.9" font-family="Times Roman,serif" font-size="14.00">new</text>
<text text-anchor="start" x="589" y="-78.9" font-family="Times Roman,serif" font-size="14.00">show</text>
<text text-anchor="start" x="589" y="-60.9" font-family="Times Roman,serif" font-size="14.00">update</text>
<polyline fill="none" stroke="black" points="581,-51.5 721,-51.5 "/>
<polyline fill="none" stroke="black" points="581,-27.5 721,-27.5 "/>
<text text-anchor="start" x="589" y="-10.9" font-family="Times Roman,serif" font-size="14.00">_layout</text>
</g>
</g>
</svg>
