<?xml version="1.0" encoding="UTF-8" standalone="no"?>
<!DOCTYPE svg PUBLIC "-//W3C//DTD SVG 1.1//EN"
 "http://www.w3.org/Graphics/SVG/1.1/DTD/svg11.dtd">
<!-- Generated by graphviz version 2.26.3 (20100126.1600)
 -->
<!-- Title: controllers_diagram Pages: 1 -->
<svg width="731pt" height="632pt"
 viewBox="0.00 0.00 731.00 632.00" xmlns="http://www.w3.org/2000/svg" xmlns:xlink="http://www.w3.org/1999/xlink">
<g id="graph1" class="graph" transform="scale(1 1) rotate(0) translate(4 628)">
<title>controllers_diagram</title>
<polygon fill="white" stroke="white" points="-4,5 -4,-628 728,-628 728,5 -4,5"/>
<!-- _diagram_info -->
<g id="node1" class="node"><title>_diagram_info</title>
<text text-anchor="start" x="193" y="-584.3" font-family="Times Roman,serif" font-size="13.00">Controllers diagram</text>
<text text-anchor="start" x="193" y="-567.3" font-family="Times Roman,serif" font-size="13.00">Date: Oct 30 2011 &#45; 19:21</text>
<text text-anchor="start" x="193" y="-550.3" font-family="Times Roman,serif" font-size="13.00">Migration version: 20111031011254</text>
<text text-anchor="start" x="193" y="-533.3" font-family="Times Roman,serif" font-size="13.00">Generated by RailRoady 1.0.2</text>
<text text-anchor="start" x="193" y="-516.3" font-family="Times Roman,serif" font-size="13.00">http://railroady.prestonlee.com</text>
</g>
<!-- ExercisesController -->
<g id="node2" class="node"><title>ExercisesController</title>
<polyline fill="none" stroke="black" points="473,-185.5 687,-185.5 "/>
<path fill="none" stroke="black" d="M687,-185.5C693,-185.5 699,-191.5 699,-197.5"/>
<polyline fill="none" stroke="black" points="699,-197.5 699,-437.5 "/>
<path fill="none" stroke="black" d="M699,-437.5C699,-443.5 693,-449.5 687,-449.5"/>
<polyline fill="none" stroke="black" points="687,-449.5 473,-449.5 "/>
<path fill="none" stroke="black" d="M473,-449.5C467,-449.5 461,-443.5 461,-437.5"/>
<polyline fill="none" stroke="black" points="461,-437.5 461,-197.5 "/>
<path fill="none" stroke="black" d="M461,-197.5C461,-191.5 467,-185.5 473,-185.5"/>
<text text-anchor="middle" x="580" y="-432.9" font-family="Times Roman,serif" font-size="14.00">ExercisesController</text>
<polyline fill="none" stroke="black" points="461,-423.5 699,-423.5 "/>
<text text-anchor="start" x="469" y="-406.9" font-family="Times Roman,serif" font-size="14.00">_one_time_conditions_valid_14?</text>
<text text-anchor="start" x="469" y="-388.9" font-family="Times Roman,serif" font-size="14.00">create</text>
<text text-anchor="start" x="469" y="-370.9" font-family="Times Roman,serif" font-size="14.00">destroy</text>
<text text-anchor="start" x="469" y="-352.9" font-family="Times Roman,serif" font-size="14.00">edit</text>
<text text-anchor="start" x="469" y="-334.9" font-family="Times Roman,serif" font-size="14.00">find_course</text>
<text text-anchor="start" x="469" y="-316.9" font-family="Times Roman,serif" font-size="14.00">index</text>
<text text-anchor="start" x="469" y="-298.9" font-family="Times Roman,serif" font-size="14.00">new</text>
<text text-anchor="start" x="469" y="-280.9" font-family="Times Roman,serif" font-size="14.00">show</text>
<text text-anchor="start" x="469" y="-262.9" font-family="Times Roman,serif" font-size="14.00">update</text>
<polyline fill="none" stroke="black" points="461,-253.5 699,-253.5 "/>
<polyline fill="none" stroke="black" points="461,-229.5 699,-229.5 "/>
<text text-anchor="start" x="469" y="-212.9" font-family="Times Roman,serif" font-size="14.00">_layout</text>
<text text-anchor="start" x="469" y="-194.9" font-family="Times Roman,serif" font-size="14.00">_run_process_action_callbacks</text>
</g>
<!-- SourceCodesController -->
<g id="node3" class="node"><title>SourceCodesController</title>
<polyline fill="none" stroke="black" points="197,-162.5 411,-162.5 "/>
<path fill="none" stroke="black" d="M411,-162.5C417,-162.5 423,-168.5 423,-174.5"/>
<polyline fill="none" stroke="black" points="423,-174.5 423,-450.5 "/>
<path fill="none" stroke="black" d="M423,-450.5C423,-456.5 417,-462.5 411,-462.5"/>
<polyline fill="none" stroke="black" points="411,-462.5 197,-462.5 "/>
<path fill="none" stroke="black" d="M197,-462.5C191,-462.5 185,-456.5 185,-450.5"/>
<polyline fill="none" stroke="black" points="185,-450.5 185,-174.5 "/>
<path fill="none" stroke="black" d="M185,-174.5C185,-168.5 191,-162.5 197,-162.5"/>
<text text-anchor="middle" x="304" y="-445.9" font-family="Times Roman,serif" font-size="14.00">SourceCodesController</text>
<polyline fill="none" stroke="black" points="185,-436.5 423,-436.5 "/>
<text text-anchor="start" x="193" y="-419.9" font-family="Times Roman,serif" font-size="14.00">_one_time_conditions_valid_16?</text>
<text text-anchor="start" x="193" y="-401.9" font-family="Times Roman,serif" font-size="14.00">compare</text>
<text text-anchor="start" x="193" y="-383.9" font-family="Times Roman,serif" font-size="14.00">create</text>
<text text-anchor="start" x="193" y="-365.9" font-family="Times Roman,serif" font-size="14.00">destroy</text>
<text text-anchor="start" x="193" y="-347.9" font-family="Times Roman,serif" font-size="14.00">edit</text>
<text text-anchor="start" x="193" y="-329.9" font-family="Times Roman,serif" font-size="14.00">find_exercise</text>
<text text-anchor="start" x="193" y="-311.9" font-family="Times Roman,serif" font-size="14.00">index</text>
<text text-anchor="start" x="193" y="-293.9" font-family="Times Roman,serif" font-size="14.00">new</text>
<text text-anchor="start" x="193" y="-275.9" font-family="Times Roman,serif" font-size="14.00">show</text>
<text text-anchor="start" x="193" y="-257.9" font-family="Times Roman,serif" font-size="14.00">update</text>
<text text-anchor="start" x="193" y="-239.9" font-family="Times Roman,serif" font-size="14.00">upload_file</text>
<polyline fill="none" stroke="black" points="185,-230.5 423,-230.5 "/>
<polyline fill="none" stroke="black" points="185,-206.5 423,-206.5 "/>
<text text-anchor="start" x="193" y="-189.9" font-family="Times Roman,serif" font-size="14.00">_layout</text>
<text text-anchor="start" x="193" y="-171.9" font-family="Times Roman,serif" font-size="14.00">_run_process_action_callbacks</text>
</g>
<!-- UsersController -->
<g id="node4" class="node"><title>UsersController</title>
<polyline fill="none" stroke="black" points="36,-323.5 136,-323.5 "/>
<path fill="none" stroke="black" d="M136,-323.5C142,-323.5 148,-329.5 148,-335.5"/>
<polyline fill="none" stroke="black" points="148,-335.5 148,-521.5 "/>
<path fill="none" stroke="black" d="M148,-521.5C148,-527.5 142,-533.5 136,-533.5"/>
<polyline fill="none" stroke="black" points="136,-533.5 36,-533.5 "/>
<path fill="none" stroke="black" d="M36,-533.5C30,-533.5 24,-527.5 24,-521.5"/>
<polyline fill="none" stroke="black" points="24,-521.5 24,-335.5 "/>
<path fill="none" stroke="black" d="M24,-335.5C24,-329.5 30,-323.5 36,-323.5"/>
<text text-anchor="middle" x="86" y="-516.9" font-family="Times Roman,serif" font-size="14.00">UsersController</text>
<polyline fill="none" stroke="black" points="24,-507.5 148,-507.5 "/>
<text text-anchor="start" x="32" y="-490.9" font-family="Times Roman,serif" font-size="14.00">create</text>
<text text-anchor="start" x="32" y="-472.9" font-family="Times Roman,serif" font-size="14.00">destroy</text>
<text text-anchor="start" x="32" y="-454.9" font-family="Times Roman,serif" font-size="14.00">edit</text>
<text text-anchor="start" x="32" y="-436.9" font-family="Times Roman,serif" font-size="14.00">index</text>
<text text-anchor="start" x="32" y="-418.9" font-family="Times Roman,serif" font-size="14.00">new</text>
<text text-anchor="start" x="32" y="-400.9" font-family="Times Roman,serif" font-size="14.00">show</text>
<text text-anchor="start" x="32" y="-382.9" font-family="Times Roman,serif" font-size="14.00">update</text>
<polyline fill="none" stroke="black" points="24,-373.5 148,-373.5 "/>
<polyline fill="none" stroke="black" points="24,-349.5 148,-349.5 "/>
<text text-anchor="start" x="32" y="-332.9" font-family="Times Roman,serif" font-size="14.00">_layout</text>
</g>
<!-- ApplicationController -->
<g id="node5" class="node"><title>ApplicationController</title>
<polyline fill="none" stroke="black" points="496,-484.5 710,-484.5 "/>
<path fill="none" stroke="black" d="M710,-484.5C716,-484.5 722,-490.5 722,-496.5"/>
<polyline fill="none" stroke="black" points="722,-496.5 722,-610.5 "/>
<path fill="none" stroke="black" d="M722,-610.5C722,-616.5 716,-622.5 710,-622.5"/>
<polyline fill="none" stroke="black" points="710,-622.5 496,-622.5 "/>
<path fill="none" stroke="black" d="M496,-622.5C490,-622.5 484,-616.5 484,-610.5"/>
<polyline fill="none" stroke="black" points="484,-610.5 484,-496.5 "/>
<path fill="none" stroke="black" d="M484,-496.5C484,-490.5 490,-484.5 496,-484.5"/>
<text text-anchor="middle" x="603" y="-605.9" font-family="Times Roman,serif" font-size="14.00">ApplicationController</text>
<polyline fill="none" stroke="black" points="484,-596.5 722,-596.5 "/>
<text text-anchor="start" x="492" y="-579.9" font-family="Times Roman,serif" font-size="14.00">_one_time_conditions_valid_12?</text>
<polyline fill="none" stroke="black" points="484,-570.5 722,-570.5 "/>
<polyline fill="none" stroke="black" points="484,-546.5 722,-546.5 "/>
<text text-anchor="start" x="492" y="-529.9" font-family="Times Roman,serif" font-size="14.00">_layout</text>
<text text-anchor="start" x="492" y="-511.9" font-family="Times Roman,serif" font-size="14.00">_run_process_action_callbacks</text>
<text text-anchor="start" x="492" y="-493.9" font-family="Times Roman,serif" font-size="14.00">current_user</text>
</g>
<!-- SessionsController -->
<g id="node6" class="node"><title>SessionsController</title>
<polyline fill="none" stroke="black" points="473,-1.5 593,-1.5 "/>
<path fill="none" stroke="black" d="M593,-1.5C599,-1.5 605,-7.5 605,-13.5"/>
<polyline fill="none" stroke="black" points="605,-13.5 605,-127.5 "/>
<path fill="none" stroke="black" d="M605,-127.5C605,-133.5 599,-139.5 593,-139.5"/>
<polyline fill="none" stroke="black" points="593,-139.5 473,-139.5 "/>
<path fill="none" stroke="black" d="M473,-139.5C467,-139.5 461,-133.5 461,-127.5"/>
<polyline fill="none" stroke="black" points="461,-127.5 461,-13.5 "/>
<path fill="none" stroke="black" d="M461,-13.5C461,-7.5 467,-1.5 473,-1.5"/>
<text text-anchor="middle" x="533" y="-122.9" font-family="Times Roman,serif" font-size="14.00">SessionsController</text>
<polyline fill="none" stroke="black" points="461,-113.5 605,-113.5 "/>
<text text-anchor="start" x="469" y="-96.9" font-family="Times Roman,serif" font-size="14.00">create</text>
<text text-anchor="start" x="469" y="-78.9" font-family="Times Roman,serif" font-size="14.00">destroy</text>
<text text-anchor="start" x="469" y="-60.9" font-family="Times Roman,serif" font-size="14.00">new</text>
<polyline fill="none" stroke="black" points="461,-51.5 605,-51.5 "/>
<polyline fill="none" stroke="black" points="461,-27.5 605,-27.5 "/>
<text text-anchor="start" x="469" y="-10.9" font-family="Times Roman,serif" font-size="14.00">_layout</text>
</g>
<!-- CoursesController -->
<g id="node7" class="node"><title>CoursesController</title>
<polyline fill="none" stroke="black" points="13,-70.5 129,-70.5 "/>
<path fill="none" stroke="black" d="M129,-70.5C135,-70.5 141,-76.5 141,-82.5"/>
<polyline fill="none" stroke="black" points="141,-82.5 141,-268.5 "/>
<path fill="none" stroke="black" d="M141,-268.5C141,-274.5 135,-280.5 129,-280.5"/>
<polyline fill="none" stroke="black" points="129,-280.5 13,-280.5 "/>
<path fill="none" stroke="black" d="M13,-280.5C7,-280.5 1,-274.5 1,-268.5"/>
<polyline fill="none" stroke="black" points="1,-268.5 1,-82.5 "/>
<path fill="none" stroke="black" d="M1,-82.5C1,-76.5 7,-70.5 13,-70.5"/>
<text text-anchor="middle" x="71" y="-263.9" font-family="Times Roman,serif" font-size="14.00">CoursesController</text>
<polyline fill="none" stroke="black" points="1,-254.5 141,-254.5 "/>
<text text-anchor="start" x="9" y="-237.9" font-family="Times Roman,serif" font-size="14.00">create</text>
<text text-anchor="start" x="9" y="-219.9" font-family="Times Roman,serif" font-size="14.00">destroy</text>
<text text-anchor="start" x="9" y="-201.9" font-family="Times Roman,serif" font-size="14.00">edit</text>
<text text-anchor="start" x="9" y="-183.9" font-family="Times Roman,serif" font-size="14.00">index</text>
<text text-anchor="start" x="9" y="-165.9" font-family="Times Roman,serif" font-size="14.00">new</text>
<text text-anchor="start" x="9" y="-147.9" font-family="Times Roman,serif" font-size="14.00">show</text>
<text text-anchor="start" x="9" y="-129.9" font-family="Times Roman,serif" font-size="14.00">update</text>
<polyline fill="none" stroke="black" points="1,-120.5 141,-120.5 "/>
<polyline fill="none" stroke="black" points="1,-96.5 141,-96.5 "/>
<text text-anchor="start" x="9" y="-79.9" font-family="Times Roman,serif" font-size="14.00">_layout</text>
</g>
</g>
</svg>
