<?xml version="1.0" encoding="UTF-8" standalone="no"?>
<!DOCTYPE svg PUBLIC "-//W3C//DTD SVG 1.1//EN"
 "http://www.w3.org/Graphics/SVG/1.1/DTD/svg11.dtd">
<!-- Generated by graphviz version 2.26.3 (20100126.1600)
 -->
<!-- Title: controllers_diagram Pages: 1 -->
<svg width="842pt" height="851pt"
 viewBox="0.00 0.00 842.00 851.00" xmlns="http://www.w3.org/2000/svg" xmlns:xlink="http://www.w3.org/1999/xlink">
<g id="graph1" class="graph" transform="scale(1 1) rotate(0) translate(4 847)">
<title>controllers_diagram</title>
<polygon fill="white" stroke="white" points="-4,5 -4,-847 839,-847 839,5 -4,5"/>
<!-- _diagram_info -->
<g id="node1" class="node"><title>_diagram_info</title>
<text text-anchor="start" x="9" y="-159.3" font-family="Times Roman,serif" font-size="13.00">Controllers diagram</text>
<text text-anchor="start" x="9" y="-142.3" font-family="Times Roman,serif" font-size="13.00">Date: Dec 03 2011 &#45; 18:16</text>
<text text-anchor="start" x="9" y="-125.3" font-family="Times Roman,serif" font-size="13.00">Migration version: 20111106010434</text>
<text text-anchor="start" x="9" y="-108.3" font-family="Times Roman,serif" font-size="13.00">Generated by RailRoady 1.0.2</text>
<text text-anchor="start" x="9" y="-91.3" font-family="Times Roman,serif" font-size="13.00">http://railroady.prestonlee.com</text>
</g>
<!-- ExercisesController -->
<g id="node2" class="node"><title>ExercisesController</title>
<polyline fill="none" stroke="black" points="175,-217.5 389,-217.5 "/>
<path fill="none" stroke="black" d="M389,-217.5C395,-217.5 401,-223.5 401,-229.5"/>
<polyline fill="none" stroke="black" points="401,-229.5 401,-523.5 "/>
<path fill="none" stroke="black" d="M401,-523.5C401,-529.5 395,-535.5 389,-535.5"/>
<polyline fill="none" stroke="black" points="389,-535.5 175,-535.5 "/>
<path fill="none" stroke="black" d="M175,-535.5C169,-535.5 163,-529.5 163,-523.5"/>
<polyline fill="none" stroke="black" points="163,-523.5 163,-229.5 "/>
<path fill="none" stroke="black" d="M163,-229.5C163,-223.5 169,-217.5 175,-217.5"/>
<text text-anchor="middle" x="282" y="-518.9" font-family="Times Roman,serif" font-size="14.00">ExercisesController</text>
<polyline fill="none" stroke="black" points="163,-509.5 401,-509.5 "/>
<text text-anchor="start" x="171" y="-492.9" font-family="Times Roman,serif" font-size="14.00">_one_time_conditions_valid_14?</text>
<text text-anchor="start" x="171" y="-474.9" font-family="Times Roman,serif" font-size="14.00">_one_time_conditions_valid_16?</text>
<text text-anchor="start" x="171" y="-456.9" font-family="Times Roman,serif" font-size="14.00">comparison</text>
<text text-anchor="start" x="171" y="-438.9" font-family="Times Roman,serif" font-size="14.00">create</text>
<text text-anchor="start" x="171" y="-420.9" font-family="Times Roman,serif" font-size="14.00">destroy</text>
<text text-anchor="start" x="171" y="-402.9" font-family="Times Roman,serif" font-size="14.00">edit</text>
<text text-anchor="start" x="171" y="-384.9" font-family="Times Roman,serif" font-size="14.00">find_course</text>
<text text-anchor="start" x="171" y="-366.9" font-family="Times Roman,serif" font-size="14.00">index</text>
<text text-anchor="start" x="171" y="-348.9" font-family="Times Roman,serif" font-size="14.00">new</text>
<text text-anchor="start" x="171" y="-330.9" font-family="Times Roman,serif" font-size="14.00">show</text>
<text text-anchor="start" x="171" y="-312.9" font-family="Times Roman,serif" font-size="14.00">update</text>
<text text-anchor="start" x="171" y="-294.9" font-family="Times Roman,serif" font-size="14.00">view_similarity</text>
<polyline fill="none" stroke="black" points="163,-285.5 401,-285.5 "/>
<polyline fill="none" stroke="black" points="163,-261.5 401,-261.5 "/>
<text text-anchor="start" x="171" y="-244.9" font-family="Times Roman,serif" font-size="14.00">_layout</text>
<text text-anchor="start" x="171" y="-226.9" font-family="Times Roman,serif" font-size="14.00">_run_process_action_callbacks</text>
</g>
<!-- SourceCodesController -->
<g id="node3" class="node"><title>SourceCodesController</title>
<polyline fill="none" stroke="black" points="472,-217.5 686,-217.5 "/>
<path fill="none" stroke="black" d="M686,-217.5C692,-217.5 698,-223.5 698,-229.5"/>
<polyline fill="none" stroke="black" points="698,-229.5 698,-523.5 "/>
<path fill="none" stroke="black" d="M698,-523.5C698,-529.5 692,-535.5 686,-535.5"/>
<polyline fill="none" stroke="black" points="686,-535.5 472,-535.5 "/>
<path fill="none" stroke="black" d="M472,-535.5C466,-535.5 460,-529.5 460,-523.5"/>
<polyline fill="none" stroke="black" points="460,-523.5 460,-229.5 "/>
<path fill="none" stroke="black" d="M460,-229.5C460,-223.5 466,-217.5 472,-217.5"/>
<text text-anchor="middle" x="579" y="-518.9" font-family="Times Roman,serif" font-size="14.00">SourceCodesController</text>
<polyline fill="none" stroke="black" points="460,-509.5 698,-509.5 "/>
<text text-anchor="start" x="468" y="-492.9" font-family="Times Roman,serif" font-size="14.00">_one_time_conditions_valid_18?</text>
<text text-anchor="start" x="468" y="-474.9" font-family="Times Roman,serif" font-size="14.00">_one_time_conditions_valid_20?</text>
<text text-anchor="start" x="468" y="-456.9" font-family="Times Roman,serif" font-size="14.00">compare</text>
<text text-anchor="start" x="468" y="-438.9" font-family="Times Roman,serif" font-size="14.00">create</text>
<text text-anchor="start" x="468" y="-420.9" font-family="Times Roman,serif" font-size="14.00">destroy</text>
<text text-anchor="start" x="468" y="-402.9" font-family="Times Roman,serif" font-size="14.00">edit</text>
<text text-anchor="start" x="468" y="-384.9" font-family="Times Roman,serif" font-size="14.00">find_exercise</text>
<text text-anchor="start" x="468" y="-366.9" font-family="Times Roman,serif" font-size="14.00">index</text>
<text text-anchor="start" x="468" y="-348.9" font-family="Times Roman,serif" font-size="14.00">new</text>
<text text-anchor="start" x="468" y="-330.9" font-family="Times Roman,serif" font-size="14.00">show</text>
<text text-anchor="start" x="468" y="-312.9" font-family="Times Roman,serif" font-size="14.00">update</text>
<text text-anchor="start" x="468" y="-294.9" font-family="Times Roman,serif" font-size="14.00">upload_file</text>
<polyline fill="none" stroke="black" points="460,-285.5 698,-285.5 "/>
<polyline fill="none" stroke="black" points="460,-261.5 698,-261.5 "/>
<text text-anchor="start" x="468" y="-244.9" font-family="Times Roman,serif" font-size="14.00">_layout</text>
<text text-anchor="start" x="468" y="-226.9" font-family="Times Roman,serif" font-size="14.00">_run_process_action_callbacks</text>
</g>
<!-- UsersController -->
<g id="node4" class="node"><title>UsersController</title>
<polyline fill="none" stroke="black" points="526,-595.5 740,-595.5 "/>
<path fill="none" stroke="black" d="M740,-595.5C746,-595.5 752,-601.5 752,-607.5"/>
<polyline fill="none" stroke="black" points="752,-607.5 752,-829.5 "/>
<path fill="none" stroke="black" d="M752,-829.5C752,-835.5 746,-841.5 740,-841.5"/>
<polyline fill="none" stroke="black" points="740,-841.5 526,-841.5 "/>
<path fill="none" stroke="black" d="M526,-841.5C520,-841.5 514,-835.5 514,-829.5"/>
<polyline fill="none" stroke="black" points="514,-829.5 514,-607.5 "/>
<path fill="none" stroke="black" d="M514,-607.5C514,-601.5 520,-595.5 526,-595.5"/>
<text text-anchor="middle" x="633" y="-824.9" font-family="Times Roman,serif" font-size="14.00">UsersController</text>
<polyline fill="none" stroke="black" points="514,-815.5 752,-815.5 "/>
<text text-anchor="start" x="522" y="-798.9" font-family="Times Roman,serif" font-size="14.00">_one_time_conditions_valid_22?</text>
<text text-anchor="start" x="522" y="-780.9" font-family="Times Roman,serif" font-size="14.00">create</text>
<text text-anchor="start" x="522" y="-762.9" font-family="Times Roman,serif" font-size="14.00">destroy</text>
<text text-anchor="start" x="522" y="-744.9" font-family="Times Roman,serif" font-size="14.00">edit</text>
<text text-anchor="start" x="522" y="-726.9" font-family="Times Roman,serif" font-size="14.00">index</text>
<text text-anchor="start" x="522" y="-708.9" font-family="Times Roman,serif" font-size="14.00">new</text>
<text text-anchor="start" x="522" y="-690.9" font-family="Times Roman,serif" font-size="14.00">show</text>
<text text-anchor="start" x="522" y="-672.9" font-family="Times Roman,serif" font-size="14.00">update</text>
<polyline fill="none" stroke="black" points="514,-663.5 752,-663.5 "/>
<polyline fill="none" stroke="black" points="514,-639.5 752,-639.5 "/>
<text text-anchor="start" x="522" y="-622.9" font-family="Times Roman,serif" font-size="14.00">_layout</text>
<text text-anchor="start" x="522" y="-604.9" font-family="Times Roman,serif" font-size="14.00">_run_process_action_callbacks</text>
</g>
<!-- ApplicationController -->
<g id="node5" class="node"><title>ApplicationController</title>
<polyline fill="none" stroke="black" points="607,-1.5 821,-1.5 "/>
<path fill="none" stroke="black" d="M821,-1.5C827,-1.5 833,-7.5 833,-13.5"/>
<polyline fill="none" stroke="black" points="833,-13.5 833,-145.5 "/>
<path fill="none" stroke="black" d="M833,-145.5C833,-151.5 827,-157.5 821,-157.5"/>
<polyline fill="none" stroke="black" points="821,-157.5 607,-157.5 "/>
<path fill="none" stroke="black" d="M607,-157.5C601,-157.5 595,-151.5 595,-145.5"/>
<polyline fill="none" stroke="black" points="595,-145.5 595,-13.5 "/>
<path fill="none" stroke="black" d="M595,-13.5C595,-7.5 601,-1.5 607,-1.5"/>
<text text-anchor="middle" x="714" y="-140.9" font-family="Times Roman,serif" font-size="14.00">ApplicationController</text>
<polyline fill="none" stroke="black" points="595,-131.5 833,-131.5 "/>
<text text-anchor="start" x="603" y="-114.9" font-family="Times Roman,serif" font-size="14.00">_one_time_conditions_valid_12?</text>
<polyline fill="none" stroke="black" points="595,-105.5 833,-105.5 "/>
<polyline fill="none" stroke="black" points="595,-81.5 833,-81.5 "/>
<text text-anchor="start" x="603" y="-64.9" font-family="Times Roman,serif" font-size="14.00">_layout</text>
<text text-anchor="start" x="603" y="-46.9" font-family="Times Roman,serif" font-size="14.00">_run_process_action_callbacks</text>
<text text-anchor="start" x="603" y="-28.9" font-family="Times Roman,serif" font-size="14.00">current_user</text>
<text text-anchor="start" x="603" y="-10.9" font-family="Times Roman,serif" font-size="14.00">logged_in?</text>
</g>
<!-- SessionsController -->
<g id="node6" class="node"><title>SessionsController</title>
<polyline fill="none" stroke="black" points="310,-1.5 524,-1.5 "/>
<path fill="none" stroke="black" d="M524,-1.5C530,-1.5 536,-7.5 536,-13.5"/>
<polyline fill="none" stroke="black" points="536,-13.5 536,-163.5 "/>
<path fill="none" stroke="black" d="M536,-163.5C536,-169.5 530,-175.5 524,-175.5"/>
<polyline fill="none" stroke="black" points="524,-175.5 310,-175.5 "/>
<path fill="none" stroke="black" d="M310,-175.5C304,-175.5 298,-169.5 298,-163.5"/>
<polyline fill="none" stroke="black" points="298,-163.5 298,-13.5 "/>
<path fill="none" stroke="black" d="M298,-13.5C298,-7.5 304,-1.5 310,-1.5"/>
<text text-anchor="middle" x="417" y="-158.9" font-family="Times Roman,serif" font-size="14.00">SessionsController</text>
<polyline fill="none" stroke="black" points="298,-149.5 536,-149.5 "/>
<text text-anchor="start" x="306" y="-132.9" font-family="Times Roman,serif" font-size="14.00">_one_time_conditions_valid_24?</text>
<text text-anchor="start" x="306" y="-114.9" font-family="Times Roman,serif" font-size="14.00">create</text>
<text text-anchor="start" x="306" y="-96.9" font-family="Times Roman,serif" font-size="14.00">destroy</text>
<text text-anchor="start" x="306" y="-78.9" font-family="Times Roman,serif" font-size="14.00">new</text>
<polyline fill="none" stroke="black" points="298,-69.5 536,-69.5 "/>
<polyline fill="none" stroke="black" points="298,-45.5 536,-45.5 "/>
<text text-anchor="start" x="306" y="-28.9" font-family="Times Roman,serif" font-size="14.00">_layout</text>
<text text-anchor="start" x="306" y="-10.9" font-family="Times Roman,serif" font-size="14.00">_run_process_action_callbacks</text>
</g>
<!-- CoursesController -->
<g id="node7" class="node"><title>CoursesController</title>
<polyline fill="none" stroke="black" points="229,-595.5 443,-595.5 "/>
<path fill="none" stroke="black" d="M443,-595.5C449,-595.5 455,-601.5 455,-607.5"/>
<polyline fill="none" stroke="black" points="455,-607.5 455,-829.5 "/>
<path fill="none" stroke="black" d="M455,-829.5C455,-835.5 449,-841.5 443,-841.5"/>
<polyline fill="none" stroke="black" points="443,-841.5 229,-841.5 "/>
<path fill="none" stroke="black" d="M229,-841.5C223,-841.5 217,-835.5 217,-829.5"/>
<polyline fill="none" stroke="black" points="217,-829.5 217,-607.5 "/>
<path fill="none" stroke="black" d="M217,-607.5C217,-601.5 223,-595.5 229,-595.5"/>
<text text-anchor="middle" x="336" y="-824.9" font-family="Times Roman,serif" font-size="14.00">CoursesController</text>
<polyline fill="none" stroke="black" points="217,-815.5 455,-815.5 "/>
<text text-anchor="start" x="225" y="-798.9" font-family="Times Roman,serif" font-size="14.00">_one_time_conditions_valid_28?</text>
<text text-anchor="start" x="225" y="-780.9" font-family="Times Roman,serif" font-size="14.00">create</text>
<text text-anchor="start" x="225" y="-762.9" font-family="Times Roman,serif" font-size="14.00">destroy</text>
<text text-anchor="start" x="225" y="-744.9" font-family="Times Roman,serif" font-size="14.00">edit</text>
<text text-anchor="start" x="225" y="-726.9" font-family="Times Roman,serif" font-size="14.00">index</text>
<text text-anchor="start" x="225" y="-708.9" font-family="Times Roman,serif" font-size="14.00">new</text>
<text text-anchor="start" x="225" y="-690.9" font-family="Times Roman,serif" font-size="14.00">show</text>
<text text-anchor="start" x="225" y="-672.9" font-family="Times Roman,serif" font-size="14.00">update</text>
<polyline fill="none" stroke="black" points="217,-663.5 455,-663.5 "/>
<polyline fill="none" stroke="black" points="217,-639.5 455,-639.5 "/>
<text text-anchor="start" x="225" y="-622.9" font-family="Times Roman,serif" font-size="14.00">_layout</text>
<text text-anchor="start" x="225" y="-604.9" font-family="Times Roman,serif" font-size="14.00">_run_process_action_callbacks</text>
</g>
</g>
</svg>
