<?xml version="1.0" encoding="UTF-8" standalone="no"?>
<!DOCTYPE svg PUBLIC "-//W3C//DTD SVG 1.1//EN"
 "http://www.w3.org/Graphics/SVG/1.1/DTD/svg11.dtd">
<!-- Generated by graphviz version 2.26.3 (20100126.1600)
 -->
<!-- Title: models_diagram Pages: 1 -->
<svg width="471pt" height="346pt"
 viewBox="0.00 0.00 471.00 346.00" xmlns="http://www.w3.org/2000/svg" xmlns:xlink="http://www.w3.org/1999/xlink">
<g id="graph1" class="graph" transform="scale(1 1) rotate(0) translate(4 342)">
<title>models_diagram</title>
<polygon fill="white" stroke="white" points="-4,5 -4,-342 468,-342 468,5 -4,5"/>
<!-- _diagram_info -->
<g id="node1" class="node"><title>_diagram_info</title>
<text text-anchor="start" x="8" y="-321.8" font-family="Times Roman,serif" font-size="13.00">Models diagram</text>
<text text-anchor="start" x="8" y="-304.8" font-family="Times Roman,serif" font-size="13.00">Date: Oct 07 2011 &#45; 11:45</text>
<text text-anchor="start" x="8" y="-287.8" font-family="Times Roman,serif" font-size="13.00">Migration version: 20111007162417</text>
<text text-anchor="start" x="8" y="-270.8" font-family="Times Roman,serif" font-size="13.00">Generated by RailRoady 1.0.2</text>
<text text-anchor="start" x="8" y="-253.8" font-family="Times Roman,serif" font-size="13.00">http://railroady.prestonlee.com</text>
</g>
<!-- Course -->
<g id="node2" class="node"><title>Course</title>
<ellipse fill="none" stroke="black" cx="314" cy="-291" rx="45.9619" ry="18.3848"/>
<text text-anchor="middle" x="314" y="-287.4" font-family="Times Roman,serif" font-size="14.00">Course</text>
</g>
<!-- Exercise -->
<g id="node4" class="node"><title>Exercise</title>
<ellipse fill="none" stroke="black" cx="363" cy="-187" rx="51.1176" ry="18.3848"/>
<text text-anchor="middle" x="363" y="-183.4" font-family="Times Roman,serif" font-size="14.00">Exercise</text>
</g>
<!-- Course&#45;&gt;Exercise -->
<g id="edge2" class="edge"><title>Course&#45;&gt;Exercise</title>
<path fill="none" stroke="black" d="M326.312,-264.868C333.54,-249.528 342.666,-230.159 350.008,-214.576"/>
<ellipse fill="none" stroke="black" cx="324.465" cy="-268.788" rx="4.00002" ry="4.00002"/>
<polygon fill="black" stroke="black" points="350.053,-214.478 358.386,-207.35 352.185,-209.955 354.316,-205.432 354.316,-205.432 354.316,-205.432 352.185,-209.955 350.245,-203.514 350.053,-214.478 350.053,-214.478"/>
</g>
<!-- User -->
<g id="node3" class="node"><title>User</title>
<ellipse fill="none" stroke="black" cx="412" cy="-291" rx="33.9411" ry="18.3848"/>
<text text-anchor="middle" x="412" y="-287.4" font-family="Times Roman,serif" font-size="14.00">User</text>
</g>
<!-- User&#45;&gt;Exercise -->
<g id="edge4" class="edge"><title>User&#45;&gt;Exercise</title>
<path fill="none" stroke="black" d="M399.897,-265.312C392.624,-249.874 383.371,-230.236 375.951,-214.488"/>
<ellipse fill="none" stroke="black" cx="401.76" cy="-269.266" rx="4.00002" ry="4.00002"/>
<polygon fill="black" stroke="black" points="375.864,-214.303 375.673,-203.339 373.733,-209.78 371.602,-205.257 371.602,-205.257 371.602,-205.257 373.733,-209.78 367.531,-207.175 375.864,-214.303 375.864,-214.303"/>
</g>
<!-- SourceCode -->
<g id="node5" class="node"><title>SourceCode</title>
<ellipse fill="none" stroke="black" cx="363" cy="-111" rx="68.7979" ry="18.3848"/>
<text text-anchor="middle" x="363" y="-107.4" font-family="Times Roman,serif" font-size="14.00">SourceCode</text>
</g>
<!-- Exercise&#45;&gt;SourceCode -->
<g id="edge6" class="edge"><title>Exercise&#45;&gt;SourceCode</title>
<path fill="none" stroke="black" d="M363,-160.073C363,-153.449 363,-146.332 363,-139.63"/>
<ellipse fill="none" stroke="black" cx="363" cy="-164.213" rx="4" ry="4"/>
<polygon fill="black" stroke="black" points="363,-139.57 367.5,-129.57 363,-134.57 363,-129.57 363,-129.57 363,-129.57 363,-134.57 358.5,-129.57 363,-139.57 363,-139.57"/>
</g>
<!-- Similarity -->
<g id="node6" class="node"><title>Similarity</title>
<ellipse fill="none" stroke="black" cx="363" cy="-19" rx="57.9828" ry="18.3848"/>
<text text-anchor="middle" x="363" y="-15.4" font-family="Times Roman,serif" font-size="14.00">Similarity</text>
</g>
<!-- SourceCode&#45;&gt;Similarity -->
<g id="edge8" class="edge"><title>SourceCode&#45;&gt;Similarity</title>
<path fill="none" stroke="black" d="M326.808,-88.5058C322.448,-84.239 318.619,-79.3951 316,-74 310.262,-62.1801 317.061,-50.8363 327.11,-41.5532"/>
<ellipse fill="none" stroke="black" cx="330.015" cy="-91.3235" rx="4.00002" ry="4.00002"/>
<polygon fill="black" stroke="black" points="327.141,-41.5277 337.725,-38.6578 331.005,-38.3541 334.868,-35.1805 334.868,-35.1805 334.868,-35.1805 331.005,-38.3541 332.012,-31.7031 327.141,-41.5277 327.141,-41.5277"/>
<text text-anchor="middle" x="352.5" y="-61.4" font-family="Times Roman,serif" font-size="14.00">similarity1</text>
</g>
<!-- SourceCode&#45;&gt;Similarity -->
<g id="edge10" class="edge"><title>SourceCode&#45;&gt;Similarity</title>
<path fill="none" stroke="black" d="M383.676,-85.7162C385.852,-81.9701 387.731,-78.0142 389,-74 391.412,-66.3723 391.412,-63.6277 389,-56 387.868,-52.4209 386.252,-48.8881 384.372,-45.5092"/>
<ellipse fill="none" stroke="black" cx="381.378" cy="-89.2637" rx="4.00002" ry="4.00002"/>
<polygon fill="black" stroke="black" points="384.318,-45.4236 382.723,-34.5743 381.625,-41.2108 378.932,-36.998 378.932,-36.998 378.932,-36.998 381.625,-41.2108 375.14,-39.4218 384.318,-45.4236 384.318,-45.4236"/>
<text text-anchor="middle" x="426.5" y="-61.4" font-family="Times Roman,serif" font-size="14.00">similarity2</text>
</g>
</g>
</svg>
