<?xml version="1.0" encoding="UTF-8" standalone="no"?>
<!DOCTYPE svg PUBLIC "-//W3C//DTD SVG 1.1//EN"
 "http://www.w3.org/Graphics/SVG/1.1/DTD/svg11.dtd">
<!-- Generated by graphviz version 2.26.3 (20100126.1600)
 -->
<!-- Title: models_diagram Pages: 1 -->
<svg width="708pt" height="678pt"
 viewBox="0.00 0.00 708.00 678.00" xmlns="http://www.w3.org/2000/svg" xmlns:xlink="http://www.w3.org/1999/xlink">
<g id="graph1" class="graph" transform="scale(1 1) rotate(0) translate(4 674)">
<title>models_diagram</title>
<polygon fill="white" stroke="white" points="-4,5 -4,-674 705,-674 705,5 -4,5"/>
<!-- _diagram_info -->
<g id="node1" class="node"><title>_diagram_info</title>
<text text-anchor="start" x="8" y="-619.8" font-family="Times Roman,serif" font-size="13.00">Models diagram</text>
<text text-anchor="start" x="8" y="-602.8" font-family="Times Roman,serif" font-size="13.00">Date: Dec 03 2011 &#45; 18:15</text>
<text text-anchor="start" x="8" y="-585.8" font-family="Times Roman,serif" font-size="13.00">Migration version: 20111106010434</text>
<text text-anchor="start" x="8" y="-568.8" font-family="Times Roman,serif" font-size="13.00">Generated by RailRoady 1.0.2</text>
<text text-anchor="start" x="8" y="-551.8" font-family="Times Roman,serif" font-size="13.00">http://railroady.prestonlee.com</text>
</g>
<!-- ZipFile -->
<g id="node2" class="node"><title>ZipFile</title>
<polygon fill="none" stroke="black" points="268,-563 268,-615 330,-615 330,-563 268,-563"/>
<text text-anchor="middle" x="299" y="-598.4" font-family="Times Roman,serif" font-size="14.00">ZipFile</text>
<polyline fill="none" stroke="black" points="268,-589 330,-589 "/>
<text text-anchor="middle" x="299" y="-572.4" font-family="Times Roman,serif" font-size="14.00"> </text>
</g>
<!-- Course -->
<g id="node3" class="node"><title>Course</title>
<polyline fill="none" stroke="black" points="359.5,-536 500.5,-536 "/>
<path fill="none" stroke="black" d="M500.5,-536C506.5,-536 512.5,-542 512.5,-548"/>
<polyline fill="none" stroke="black" points="512.5,-548 512.5,-630 "/>
<path fill="none" stroke="black" d="M512.5,-630C512.5,-636 506.5,-642 500.5,-642"/>
<polyline fill="none" stroke="black" points="500.5,-642 359.5,-642 "/>
<path fill="none" stroke="black" d="M359.5,-642C353.5,-642 347.5,-636 347.5,-630"/>
<polyline fill="none" stroke="black" points="347.5,-630 347.5,-548 "/>
<path fill="none" stroke="black" d="M347.5,-548C347.5,-542 353.5,-536 359.5,-536"/>
<text text-anchor="middle" x="430" y="-625.4" font-family="Times Roman,serif" font-size="14.00">Course</text>
<polyline fill="none" stroke="black" points="347.5,-616 512.5,-616 "/>
<text text-anchor="start" x="355.5" y="-599.4" font-family="Times Roman,serif" font-size="14.00">name :string</text>
<text text-anchor="start" x="355.5" y="-581.4" font-family="Times Roman,serif" font-size="14.00">courseid :string</text>
<text text-anchor="start" x="355.5" y="-563.4" font-family="Times Roman,serif" font-size="14.00">created_at :datetime</text>
<text text-anchor="start" x="355.5" y="-545.4" font-family="Times Roman,serif" font-size="14.00">updated_at :datetime</text>
</g>
<!-- Exercise -->
<g id="node5" class="node"><title>Exercise</title>
<polyline fill="none" stroke="black" points="442.5,-327 601.5,-327 "/>
<path fill="none" stroke="black" d="M601.5,-327C607.5,-327 613.5,-333 613.5,-339"/>
<polyline fill="none" stroke="black" points="613.5,-339 613.5,-457 "/>
<path fill="none" stroke="black" d="M613.5,-457C613.5,-463 607.5,-469 601.5,-469"/>
<polyline fill="none" stroke="black" points="601.5,-469 442.5,-469 "/>
<path fill="none" stroke="black" d="M442.5,-469C436.5,-469 430.5,-463 430.5,-457"/>
<polyline fill="none" stroke="black" points="430.5,-457 430.5,-339 "/>
<path fill="none" stroke="black" d="M430.5,-339C430.5,-333 436.5,-327 442.5,-327"/>
<text text-anchor="middle" x="522" y="-452.4" font-family="Times Roman,serif" font-size="14.00">Exercise</text>
<polyline fill="none" stroke="black" points="430.5,-443 613.5,-443 "/>
<text text-anchor="start" x="438.5" y="-426.4" font-family="Times Roman,serif" font-size="14.00">name :string</text>
<text text-anchor="start" x="438.5" y="-408.4" font-family="Times Roman,serif" font-size="14.00">description :text</text>
<text text-anchor="start" x="438.5" y="-390.4" font-family="Times Roman,serif" font-size="14.00">similarity_avarage :float</text>
<text text-anchor="start" x="438.5" y="-372.4" font-family="Times Roman,serif" font-size="14.00">mar :float</text>
<text text-anchor="start" x="438.5" y="-354.4" font-family="Times Roman,serif" font-size="14.00">created_at :datetime</text>
<text text-anchor="start" x="438.5" y="-336.4" font-family="Times Roman,serif" font-size="14.00">updated_at :datetime</text>
</g>
<!-- Course&#45;&gt;Exercise -->
<g id="edge2" class="edge"><title>Course&#45;&gt;Exercise</title>
<path fill="none" stroke="black" d="M459.184,-528.411C466.842,-512.512 475.222,-495.116 483.293,-478.358"/>
<ellipse fill="none" stroke="black" cx="457.363" cy="-532.192" rx="4.00002" ry="4.00002"/>
<polygon fill="black" stroke="black" points="483.4,-478.137 491.794,-471.081 485.57,-473.632 487.74,-469.128 487.74,-469.128 487.74,-469.128 485.57,-473.632 483.685,-467.175 483.4,-478.137 483.4,-478.137"/>
</g>
<!-- User -->
<g id="node4" class="node"><title>User</title>
<polyline fill="none" stroke="black" points="541.5,-509 688.5,-509 "/>
<path fill="none" stroke="black" d="M688.5,-509C694.5,-509 700.5,-515 700.5,-521"/>
<polyline fill="none" stroke="black" points="700.5,-521 700.5,-657 "/>
<path fill="none" stroke="black" d="M700.5,-657C700.5,-663 694.5,-669 688.5,-669"/>
<polyline fill="none" stroke="black" points="688.5,-669 541.5,-669 "/>
<path fill="none" stroke="black" d="M541.5,-669C535.5,-669 529.5,-663 529.5,-657"/>
<polyline fill="none" stroke="black" points="529.5,-657 529.5,-521 "/>
<path fill="none" stroke="black" d="M529.5,-521C529.5,-515 535.5,-509 541.5,-509"/>
<text text-anchor="middle" x="615" y="-652.4" font-family="Times Roman,serif" font-size="14.00">User</text>
<polyline fill="none" stroke="black" points="529.5,-643 700.5,-643 "/>
<text text-anchor="start" x="537.5" y="-626.4" font-family="Times Roman,serif" font-size="14.00">email :string</text>
<text text-anchor="start" x="537.5" y="-608.4" font-family="Times Roman,serif" font-size="14.00">first_name :string</text>
<text text-anchor="start" x="537.5" y="-590.4" font-family="Times Roman,serif" font-size="14.00">last_name :string</text>
<text text-anchor="start" x="537.5" y="-572.4" font-family="Times Roman,serif" font-size="14.00">password_hash :string</text>
<text text-anchor="start" x="537.5" y="-554.4" font-family="Times Roman,serif" font-size="14.00">password_salt :string</text>
<text text-anchor="start" x="537.5" y="-536.4" font-family="Times Roman,serif" font-size="14.00">created_at :datetime</text>
<text text-anchor="start" x="537.5" y="-518.4" font-family="Times Roman,serif" font-size="14.00">updated_at :datetime</text>
</g>
<!-- User&#45;&gt;Exercise -->
<g id="edge4" class="edge"><title>User&#45;&gt;Exercise</title>
<path fill="none" stroke="black" d="M572.34,-501.386C568.604,-493.713 564.835,-485.972 561.13,-478.363"/>
<ellipse fill="none" stroke="black" cx="574.213" cy="-505.233" rx="4.00002" ry="4.00002"/>
<polygon fill="black" stroke="black" points="561.026,-478.151 560.695,-467.19 558.838,-473.655 556.649,-469.16 556.649,-469.16 556.649,-469.16 558.838,-473.655 552.603,-471.13 561.026,-478.151 561.026,-478.151"/>
</g>
<!-- SourceCode -->
<g id="node6" class="node"><title>SourceCode</title>
<polyline fill="none" stroke="black" points="369.5,-181 510.5,-181 "/>
<path fill="none" stroke="black" d="M510.5,-181C516.5,-181 522.5,-187 522.5,-193"/>
<polyline fill="none" stroke="black" points="522.5,-193 522.5,-275 "/>
<path fill="none" stroke="black" d="M522.5,-275C522.5,-281 516.5,-287 510.5,-287"/>
<polyline fill="none" stroke="black" points="510.5,-287 369.5,-287 "/>
<path fill="none" stroke="black" d="M369.5,-287C363.5,-287 357.5,-281 357.5,-275"/>
<polyline fill="none" stroke="black" points="357.5,-275 357.5,-193 "/>
<path fill="none" stroke="black" d="M357.5,-193C357.5,-187 363.5,-181 369.5,-181"/>
<text text-anchor="middle" x="440" y="-270.4" font-family="Times Roman,serif" font-size="14.00">SourceCode</text>
<polyline fill="none" stroke="black" points="357.5,-261 522.5,-261 "/>
<text text-anchor="start" x="365.5" y="-244.4" font-family="Times Roman,serif" font-size="14.00">created_at :datetime</text>
<text text-anchor="start" x="365.5" y="-226.4" font-family="Times Roman,serif" font-size="14.00">updated_at :datetime</text>
<text text-anchor="start" x="365.5" y="-208.4" font-family="Times Roman,serif" font-size="14.00">code :text</text>
<text text-anchor="start" x="365.5" y="-190.4" font-family="Times Roman,serif" font-size="14.00">language :string</text>
</g>
<!-- Exercise&#45;&gt;SourceCode -->
<g id="edge6" class="edge"><title>Exercise&#45;&gt;SourceCode</title>
<path fill="none" stroke="black" d="M482.567,-319.135C478.794,-311.588 475.003,-304.006 471.323,-296.645"/>
<ellipse fill="none" stroke="black" cx="484.483" cy="-322.967" rx="4.00002" ry="4.00002"/>
<polygon fill="black" stroke="black" points="471.202,-296.403 470.754,-285.446 468.965,-291.931 466.729,-287.459 466.729,-287.459 466.729,-287.459 468.965,-291.931 462.704,-289.471 471.202,-296.403 471.202,-296.403"/>
</g>
<!-- Similarity -->
<g id="node7" class="node"><title>Similarity</title>
<polyline fill="none" stroke="black" points="391.5,-1 532.5,-1 "/>
<path fill="none" stroke="black" d="M532.5,-1C538.5,-1 544.5,-7 544.5,-13"/>
<polyline fill="none" stroke="black" points="544.5,-13 544.5,-113 "/>
<path fill="none" stroke="black" d="M544.5,-113C544.5,-119 538.5,-125 532.5,-125"/>
<polyline fill="none" stroke="black" points="532.5,-125 391.5,-125 "/>
<path fill="none" stroke="black" d="M391.5,-125C385.5,-125 379.5,-119 379.5,-113"/>
<polyline fill="none" stroke="black" points="379.5,-113 379.5,-13 "/>
<path fill="none" stroke="black" d="M379.5,-13C379.5,-7 385.5,-1 391.5,-1"/>
<text text-anchor="middle" x="462" y="-108.4" font-family="Times Roman,serif" font-size="14.00">Similarity</text>
<polyline fill="none" stroke="black" points="379.5,-99 544.5,-99 "/>
<text text-anchor="start" x="387.5" y="-82.4" font-family="Times Roman,serif" font-size="14.00">algorithm_1 :float</text>
<text text-anchor="start" x="387.5" y="-64.4" font-family="Times Roman,serif" font-size="14.00">algorithm_2 :float</text>
<text text-anchor="start" x="387.5" y="-46.4" font-family="Times Roman,serif" font-size="14.00">algorithm_3 :float</text>
<text text-anchor="start" x="387.5" y="-28.4" font-family="Times Roman,serif" font-size="14.00">created_at :datetime</text>
<text text-anchor="start" x="387.5" y="-10.4" font-family="Times Roman,serif" font-size="14.00">updated_at :datetime</text>
</g>
<!-- Exercise&#45;&gt;Similarity -->
<g id="edge8" class="edge"><title>Exercise&#45;&gt;Similarity</title>
<path fill="none" stroke="black" d="M539.639,-318.721C547.379,-267.103 550.32,-199.332 528,-144 526.67,-140.704 525.158,-137.438 523.498,-134.216"/>
<ellipse fill="none" stroke="black" cx="538.98" cy="-322.911" rx="4.00001" ry="4.00001"/>
<polygon fill="black" stroke="black" points="523.366,-133.982 522.38,-123.061 520.913,-129.626 518.459,-125.269 518.459,-125.269 518.459,-125.269 520.913,-129.626 514.538,-127.477 523.366,-133.982 523.366,-133.982"/>
</g>
<!-- SourceCode&#45;&gt;Similarity -->
<g id="edge10" class="edge"><title>SourceCode&#45;&gt;Similarity</title>
<path fill="none" stroke="black" d="M367.258,-173.656C363.11,-164.212 362.297,-154.19 367,-144 368.89,-139.904 371.101,-135.939 373.568,-132.11"/>
<ellipse fill="none" stroke="black" cx="369.162" cy="-177.228" rx="4.00002" ry="4.00002"/>
<polygon fill="black" stroke="black" points="373.57,-132.107 383.023,-126.55 376.461,-128.028 379.352,-123.949 379.352,-123.949 379.352,-123.949 376.461,-128.028 375.68,-121.347 373.57,-132.107 373.57,-132.107"/>
<text text-anchor="middle" x="403.5" y="-149.4" font-family="Times Roman,serif" font-size="14.00">similarity1</text>
</g>
<!-- SourceCode&#45;&gt;Similarity -->
<g id="edge12" class="edge"><title>SourceCode&#45;&gt;Similarity</title>
<path fill="none" stroke="black" d="M447.868,-172.843C449.442,-160.61 451.109,-147.651 452.725,-135.089"/>
<ellipse fill="none" stroke="black" cx="447.351" cy="-176.865" rx="4.00001" ry="4.00001"/>
<polygon fill="black" stroke="black" points="452.732,-135.039 458.471,-125.695 453.37,-130.079 454.008,-125.12 454.008,-125.12 454.008,-125.12 453.37,-130.079 449.545,-124.546 452.732,-135.039 452.732,-135.039"/>
<text text-anchor="middle" x="487.5" y="-149.4" font-family="Times Roman,serif" font-size="14.00">similarity2</text>
</g>
</g>
</svg>
