<?xml version="1.0" encoding="UTF-8" standalone="no"?>
<!DOCTYPE svg PUBLIC "-//W3C//DTD SVG 1.1//EN"
 "http://www.w3.org/Graphics/SVG/1.1/DTD/svg11.dtd">
<!-- Generated by graphviz version 2.26.3 (20100126.1600)
 -->
<!-- Title: models_diagram Pages: 1 -->
<svg width="708pt" height="752pt"
 viewBox="0.00 0.00 708.00 752.00" xmlns="http://www.w3.org/2000/svg" xmlns:xlink="http://www.w3.org/1999/xlink">
<g id="graph1" class="graph" transform="scale(1 1) rotate(0) translate(4 748)">
<title>models_diagram</title>
<polygon fill="white" stroke="white" points="-4,5 -4,-748 705,-748 705,5 -4,5"/>
<!-- _diagram_info -->
<g id="node1" class="node"><title>_diagram_info</title>
<text text-anchor="start" x="8" y="-693.8" font-family="Times Roman,serif" font-size="13.00">Models diagram</text>
<text text-anchor="start" x="8" y="-676.8" font-family="Times Roman,serif" font-size="13.00">Date: Oct 30 2011 &#45; 19:21</text>
<text text-anchor="start" x="8" y="-659.8" font-family="Times Roman,serif" font-size="13.00">Migration version: 20111031011254</text>
<text text-anchor="start" x="8" y="-642.8" font-family="Times Roman,serif" font-size="13.00">Generated by RailRoady 1.0.2</text>
<text text-anchor="start" x="8" y="-625.8" font-family="Times Roman,serif" font-size="13.00">http://railroady.prestonlee.com</text>
</g>
<!-- Algorithm -->
<g id="node2" class="node"><title>Algorithm</title>
<polyline fill="none" stroke="black" points="371.5,-1 512.5,-1 "/>
<path fill="none" stroke="black" d="M512.5,-1C518.5,-1 524.5,-7 524.5,-13"/>
<polyline fill="none" stroke="black" points="524.5,-13 524.5,-77 "/>
<path fill="none" stroke="black" d="M524.5,-77C524.5,-83 518.5,-89 512.5,-89"/>
<polyline fill="none" stroke="black" points="512.5,-89 371.5,-89 "/>
<path fill="none" stroke="black" d="M371.5,-89C365.5,-89 359.5,-83 359.5,-77"/>
<polyline fill="none" stroke="black" points="359.5,-77 359.5,-13 "/>
<path fill="none" stroke="black" d="M359.5,-13C359.5,-7 365.5,-1 371.5,-1"/>
<text text-anchor="middle" x="442" y="-72.4" font-family="Times Roman,serif" font-size="14.00">Algorithm</text>
<polyline fill="none" stroke="black" points="359.5,-63 524.5,-63 "/>
<text text-anchor="start" x="367.5" y="-46.4" font-family="Times Roman,serif" font-size="14.00">percentage :float</text>
<text text-anchor="start" x="367.5" y="-28.4" font-family="Times Roman,serif" font-size="14.00">created_at :datetime</text>
<text text-anchor="start" x="367.5" y="-10.4" font-family="Times Roman,serif" font-size="14.00">updated_at :datetime</text>
</g>
<!-- ZipFile -->
<g id="node3" class="node"><title>ZipFile</title>
<polygon fill="none" stroke="black" points="638,-637 638,-689 700,-689 700,-637 638,-637"/>
<text text-anchor="middle" x="669" y="-672.4" font-family="Times Roman,serif" font-size="14.00">ZipFile</text>
<polyline fill="none" stroke="black" points="638,-663 700,-663 "/>
<text text-anchor="middle" x="669" y="-646.4" font-family="Times Roman,serif" font-size="14.00"> </text>
</g>
<!-- Course -->
<g id="node4" class="node"><title>Course</title>
<polyline fill="none" stroke="black" points="279.5,-610 420.5,-610 "/>
<path fill="none" stroke="black" d="M420.5,-610C426.5,-610 432.5,-616 432.5,-622"/>
<polyline fill="none" stroke="black" points="432.5,-622 432.5,-704 "/>
<path fill="none" stroke="black" d="M432.5,-704C432.5,-710 426.5,-716 420.5,-716"/>
<polyline fill="none" stroke="black" points="420.5,-716 279.5,-716 "/>
<path fill="none" stroke="black" d="M279.5,-716C273.5,-716 267.5,-710 267.5,-704"/>
<polyline fill="none" stroke="black" points="267.5,-704 267.5,-622 "/>
<path fill="none" stroke="black" d="M267.5,-622C267.5,-616 273.5,-610 279.5,-610"/>
<text text-anchor="middle" x="350" y="-699.4" font-family="Times Roman,serif" font-size="14.00">Course</text>
<polyline fill="none" stroke="black" points="267.5,-690 432.5,-690 "/>
<text text-anchor="start" x="275.5" y="-673.4" font-family="Times Roman,serif" font-size="14.00">name :string</text>
<text text-anchor="start" x="275.5" y="-655.4" font-family="Times Roman,serif" font-size="14.00">courseid :string</text>
<text text-anchor="start" x="275.5" y="-637.4" font-family="Times Roman,serif" font-size="14.00">created_at :datetime</text>
<text text-anchor="start" x="275.5" y="-619.4" font-family="Times Roman,serif" font-size="14.00">updated_at :datetime</text>
</g>
<!-- Exercise -->
<g id="node6" class="node"><title>Exercise</title>
<polyline fill="none" stroke="black" points="362.5,-401 521.5,-401 "/>
<path fill="none" stroke="black" d="M521.5,-401C527.5,-401 533.5,-407 533.5,-413"/>
<polyline fill="none" stroke="black" points="533.5,-413 533.5,-531 "/>
<path fill="none" stroke="black" d="M533.5,-531C533.5,-537 527.5,-543 521.5,-543"/>
<polyline fill="none" stroke="black" points="521.5,-543 362.5,-543 "/>
<path fill="none" stroke="black" d="M362.5,-543C356.5,-543 350.5,-537 350.5,-531"/>
<polyline fill="none" stroke="black" points="350.5,-531 350.5,-413 "/>
<path fill="none" stroke="black" d="M350.5,-413C350.5,-407 356.5,-401 362.5,-401"/>
<text text-anchor="middle" x="442" y="-526.4" font-family="Times Roman,serif" font-size="14.00">Exercise</text>
<polyline fill="none" stroke="black" points="350.5,-517 533.5,-517 "/>
<text text-anchor="start" x="358.5" y="-500.4" font-family="Times Roman,serif" font-size="14.00">name :string</text>
<text text-anchor="start" x="358.5" y="-482.4" font-family="Times Roman,serif" font-size="14.00">description :text</text>
<text text-anchor="start" x="358.5" y="-464.4" font-family="Times Roman,serif" font-size="14.00">similarity_avarage :float</text>
<text text-anchor="start" x="358.5" y="-446.4" font-family="Times Roman,serif" font-size="14.00">mar :float</text>
<text text-anchor="start" x="358.5" y="-428.4" font-family="Times Roman,serif" font-size="14.00">created_at :datetime</text>
<text text-anchor="start" x="358.5" y="-410.4" font-family="Times Roman,serif" font-size="14.00">updated_at :datetime</text>
</g>
<!-- Course&#45;&gt;Exercise -->
<g id="edge2" class="edge"><title>Course&#45;&gt;Exercise</title>
<path fill="none" stroke="black" d="M379.184,-602.411C386.842,-586.512 395.222,-569.116 403.293,-552.358"/>
<ellipse fill="none" stroke="black" cx="377.363" cy="-606.192" rx="4.00002" ry="4.00002"/>
<polygon fill="black" stroke="black" points="403.4,-552.137 411.794,-545.081 405.57,-547.632 407.74,-543.128 407.74,-543.128 407.74,-543.128 405.57,-547.632 403.685,-541.175 403.4,-552.137 403.4,-552.137"/>
</g>
<!-- User -->
<g id="node5" class="node"><title>User</title>
<polyline fill="none" stroke="black" points="461.5,-583 608.5,-583 "/>
<path fill="none" stroke="black" d="M608.5,-583C614.5,-583 620.5,-589 620.5,-595"/>
<polyline fill="none" stroke="black" points="620.5,-595 620.5,-731 "/>
<path fill="none" stroke="black" d="M620.5,-731C620.5,-737 614.5,-743 608.5,-743"/>
<polyline fill="none" stroke="black" points="608.5,-743 461.5,-743 "/>
<path fill="none" stroke="black" d="M461.5,-743C455.5,-743 449.5,-737 449.5,-731"/>
<polyline fill="none" stroke="black" points="449.5,-731 449.5,-595 "/>
<path fill="none" stroke="black" d="M449.5,-595C449.5,-589 455.5,-583 461.5,-583"/>
<text text-anchor="middle" x="535" y="-726.4" font-family="Times Roman,serif" font-size="14.00">User</text>
<polyline fill="none" stroke="black" points="449.5,-717 620.5,-717 "/>
<text text-anchor="start" x="457.5" y="-700.4" font-family="Times Roman,serif" font-size="14.00">email :string</text>
<text text-anchor="start" x="457.5" y="-682.4" font-family="Times Roman,serif" font-size="14.00">first_name :string</text>
<text text-anchor="start" x="457.5" y="-664.4" font-family="Times Roman,serif" font-size="14.00">last_name :string</text>
<text text-anchor="start" x="457.5" y="-646.4" font-family="Times Roman,serif" font-size="14.00">password_hash :string</text>
<text text-anchor="start" x="457.5" y="-628.4" font-family="Times Roman,serif" font-size="14.00">password_salt :string</text>
<text text-anchor="start" x="457.5" y="-610.4" font-family="Times Roman,serif" font-size="14.00">created_at :datetime</text>
<text text-anchor="start" x="457.5" y="-592.4" font-family="Times Roman,serif" font-size="14.00">updated_at :datetime</text>
</g>
<!-- User&#45;&gt;Exercise -->
<g id="edge4" class="edge"><title>User&#45;&gt;Exercise</title>
<path fill="none" stroke="black" d="M492.34,-575.386C488.604,-567.713 484.835,-559.972 481.13,-552.363"/>
<ellipse fill="none" stroke="black" cx="494.213" cy="-579.233" rx="4.00002" ry="4.00002"/>
<polygon fill="black" stroke="black" points="481.026,-552.151 480.695,-541.19 478.838,-547.655 476.649,-543.16 476.649,-543.16 476.649,-543.16 478.838,-547.655 472.603,-545.13 481.026,-552.151 481.026,-552.151"/>
</g>
<!-- SourceCode -->
<g id="node7" class="node"><title>SourceCode</title>
<polyline fill="none" stroke="black" points="371.5,-255 512.5,-255 "/>
<path fill="none" stroke="black" d="M512.5,-255C518.5,-255 524.5,-261 524.5,-267"/>
<polyline fill="none" stroke="black" points="524.5,-267 524.5,-349 "/>
<path fill="none" stroke="black" d="M524.5,-349C524.5,-355 518.5,-361 512.5,-361"/>
<polyline fill="none" stroke="black" points="512.5,-361 371.5,-361 "/>
<path fill="none" stroke="black" d="M371.5,-361C365.5,-361 359.5,-355 359.5,-349"/>
<polyline fill="none" stroke="black" points="359.5,-349 359.5,-267 "/>
<path fill="none" stroke="black" d="M359.5,-267C359.5,-261 365.5,-255 371.5,-255"/>
<text text-anchor="middle" x="442" y="-344.4" font-family="Times Roman,serif" font-size="14.00">SourceCode</text>
<polyline fill="none" stroke="black" points="359.5,-335 524.5,-335 "/>
<text text-anchor="start" x="367.5" y="-318.4" font-family="Times Roman,serif" font-size="14.00">created_at :datetime</text>
<text text-anchor="start" x="367.5" y="-300.4" font-family="Times Roman,serif" font-size="14.00">updated_at :datetime</text>
<text text-anchor="start" x="367.5" y="-282.4" font-family="Times Roman,serif" font-size="14.00">code :text</text>
<text text-anchor="start" x="367.5" y="-264.4" font-family="Times Roman,serif" font-size="14.00">language :string</text>
</g>
<!-- Exercise&#45;&gt;SourceCode -->
<g id="edge6" class="edge"><title>Exercise&#45;&gt;SourceCode</title>
<path fill="none" stroke="black" d="M442,-392.515C442,-385.606 442,-378.673 442,-371.912"/>
<ellipse fill="none" stroke="black" cx="442" cy="-396.544" rx="4" ry="4"/>
<polygon fill="black" stroke="black" points="442,-371.459 446.5,-361.459 442,-366.459 442,-361.459 442,-361.459 442,-361.459 442,-366.459 437.5,-361.459 442,-371.459 442,-371.459"/>
</g>
<!-- Similarity -->
<g id="node8" class="node"><title>Similarity</title>
<polyline fill="none" stroke="black" points="371.5,-129 512.5,-129 "/>
<path fill="none" stroke="black" d="M512.5,-129C518.5,-129 524.5,-135 524.5,-141"/>
<polyline fill="none" stroke="black" points="524.5,-141 524.5,-187 "/>
<path fill="none" stroke="black" d="M524.5,-187C524.5,-193 518.5,-199 512.5,-199"/>
<polyline fill="none" stroke="black" points="512.5,-199 371.5,-199 "/>
<path fill="none" stroke="black" d="M371.5,-199C365.5,-199 359.5,-193 359.5,-187"/>
<polyline fill="none" stroke="black" points="359.5,-187 359.5,-141 "/>
<path fill="none" stroke="black" d="M359.5,-141C359.5,-135 365.5,-129 371.5,-129"/>
<text text-anchor="middle" x="442" y="-182.4" font-family="Times Roman,serif" font-size="14.00">Similarity</text>
<polyline fill="none" stroke="black" points="359.5,-173 524.5,-173 "/>
<text text-anchor="start" x="367.5" y="-156.4" font-family="Times Roman,serif" font-size="14.00">created_at :datetime</text>
<text text-anchor="start" x="367.5" y="-138.4" font-family="Times Roman,serif" font-size="14.00">updated_at :datetime</text>
</g>
<!-- SourceCode&#45;&gt;Similarity -->
<g id="edge8" class="edge"><title>SourceCode&#45;&gt;Similarity</title>
<path fill="none" stroke="black" d="M399.058,-247.138C397.487,-243.463 396.112,-239.738 395,-236 392.157,-226.443 393.997,-216.971 398.27,-208.191"/>
<ellipse fill="none" stroke="black" cx="400.85" cy="-250.977" rx="4.00002" ry="4.00002"/>
<polygon fill="black" stroke="black" points="398.426,-207.928 407.385,-201.605 400.968,-203.623 403.51,-199.317 403.51,-199.317 403.51,-199.317 400.968,-203.623 399.635,-197.029 398.426,-207.928 398.426,-207.928"/>
<text text-anchor="middle" x="431.5" y="-223.4" font-family="Times Roman,serif" font-size="14.00">similarity1</text>
</g>
<!-- SourceCode&#45;&gt;Similarity -->
<g id="edge10" class="edge"><title>SourceCode&#45;&gt;Similarity</title>
<path fill="none" stroke="black" d="M468.255,-246.94C469.902,-237.304 470.148,-227.415 468,-218 467.282,-214.855 466.357,-211.68 465.285,-208.529"/>
<ellipse fill="none" stroke="black" cx="467.39" cy="-251.046" rx="4.00001" ry="4.00001"/>
<polygon fill="black" stroke="black" points="465.285,-208.528 465.89,-197.579 463.488,-203.862 461.691,-199.196 461.691,-199.196 461.691,-199.196 463.488,-203.862 457.492,-200.814 465.285,-208.528 465.285,-208.528"/>
<text text-anchor="middle" x="505.5" y="-223.4" font-family="Times Roman,serif" font-size="14.00">similarity2</text>
</g>
<!-- Similarity&#45;&gt;Algorithm -->
<g id="edge12" class="edge"><title>Similarity&#45;&gt;Algorithm</title>
<path fill="none" stroke="black" d="M442,-120.838C442,-113.901 442,-106.643 442,-99.4828"/>
<ellipse fill="none" stroke="black" cx="442" cy="-124.94" rx="4" ry="4"/>
<polygon fill="black" stroke="black" points="442,-99.1104 446.5,-89.1104 442,-94.1104 442,-89.1104 442,-89.1104 442,-89.1104 442,-94.1104 437.5,-89.1104 442,-99.1104 442,-99.1104"/>
</g>
</g>
</svg>
