<?xml version="1.0" encoding="UTF-8" standalone="no"?>
<!DOCTYPE svg PUBLIC "-//W3C//DTD SVG 1.1//EN"
 "http://www.w3.org/Graphics/SVG/1.1/DTD/svg11.dtd">
<!-- Generated by graphviz version 2.26.3 (20100126.1600)
 -->
<!-- Title: models_diagram Pages: 1 -->
<svg width="534pt" height="422pt"
 viewBox="0.00 0.00 534.00 422.00" xmlns="http://www.w3.org/2000/svg" xmlns:xlink="http://www.w3.org/1999/xlink">
<g id="graph1" class="graph" transform="scale(1 1) rotate(0) translate(4 418)">
<title>models_diagram</title>
<polygon fill="white" stroke="white" points="-4,5 -4,-418 531,-418 531,5 -4,5"/>
<!-- _diagram_info -->
<g id="node1" class="node"><title>_diagram_info</title>
<text text-anchor="start" x="8" y="-397.8" font-family="Times Roman,serif" font-size="13.00">Models diagram</text>
<text text-anchor="start" x="8" y="-380.8" font-family="Times Roman,serif" font-size="13.00">Date: Oct 30 2011 &#45; 19:21</text>
<text text-anchor="start" x="8" y="-363.8" font-family="Times Roman,serif" font-size="13.00">Migration version: 20111031011254</text>
<text text-anchor="start" x="8" y="-346.8" font-family="Times Roman,serif" font-size="13.00">Generated by RailRoady 1.0.2</text>
<text text-anchor="start" x="8" y="-329.8" font-family="Times Roman,serif" font-size="13.00">http://railroady.prestonlee.com</text>
</g>
<!-- Algorithm -->
<g id="node2" class="node"><title>Algorithm</title>
<ellipse fill="none" stroke="black" cx="363" cy="-19" rx="58.8978" ry="18.3848"/>
<text text-anchor="middle" x="363" y="-15.4" font-family="Times Roman,serif" font-size="14.00">Algorithm</text>
</g>
<!-- ZipFile -->
<g id="node3" class="node"><title>ZipFile</title>
<polygon fill="none" stroke="black" points="526,-385 464,-385 464,-349 526,-349 526,-385"/>
<text text-anchor="middle" x="495" y="-363.4" font-family="Times Roman,serif" font-size="14.00">ZipFile</text>
</g>
<!-- Course -->
<g id="node4" class="node"><title>Course</title>
<ellipse fill="none" stroke="black" cx="314" cy="-367" rx="45.9619" ry="18.3848"/>
<text text-anchor="middle" x="314" y="-363.4" font-family="Times Roman,serif" font-size="14.00">Course</text>
</g>
<!-- Exercise -->
<g id="node6" class="node"><title>Exercise</title>
<ellipse fill="none" stroke="black" cx="363" cy="-263" rx="51.1176" ry="18.3848"/>
<text text-anchor="middle" x="363" y="-259.4" font-family="Times Roman,serif" font-size="14.00">Exercise</text>
</g>
<!-- Course&#45;&gt;Exercise -->
<g id="edge2" class="edge"><title>Course&#45;&gt;Exercise</title>
<path fill="none" stroke="black" d="M326.312,-340.868C333.54,-325.528 342.666,-306.159 350.008,-290.576"/>
<ellipse fill="none" stroke="black" cx="324.465" cy="-344.788" rx="4.00002" ry="4.00002"/>
<polygon fill="black" stroke="black" points="350.053,-290.478 358.386,-283.35 352.185,-285.955 354.316,-281.432 354.316,-281.432 354.316,-281.432 352.185,-285.955 350.245,-279.514 350.053,-290.478 350.053,-290.478"/>
</g>
<!-- User -->
<g id="node5" class="node"><title>User</title>
<ellipse fill="none" stroke="black" cx="412" cy="-367" rx="33.9411" ry="18.3848"/>
<text text-anchor="middle" x="412" y="-363.4" font-family="Times Roman,serif" font-size="14.00">User</text>
</g>
<!-- User&#45;&gt;Exercise -->
<g id="edge4" class="edge"><title>User&#45;&gt;Exercise</title>
<path fill="none" stroke="black" d="M399.897,-341.312C392.624,-325.874 383.371,-306.236 375.951,-290.488"/>
<ellipse fill="none" stroke="black" cx="401.76" cy="-345.266" rx="4.00002" ry="4.00002"/>
<polygon fill="black" stroke="black" points="375.864,-290.303 375.673,-279.339 373.733,-285.78 371.602,-281.257 371.602,-281.257 371.602,-281.257 373.733,-285.78 367.531,-283.175 375.864,-290.303 375.864,-290.303"/>
</g>
<!-- SourceCode -->
<g id="node7" class="node"><title>SourceCode</title>
<ellipse fill="none" stroke="black" cx="363" cy="-187" rx="68.7979" ry="18.3848"/>
<text text-anchor="middle" x="363" y="-183.4" font-family="Times Roman,serif" font-size="14.00">SourceCode</text>
</g>
<!-- Exercise&#45;&gt;SourceCode -->
<g id="edge6" class="edge"><title>Exercise&#45;&gt;SourceCode</title>
<path fill="none" stroke="black" d="M363,-236.073C363,-229.449 363,-222.332 363,-215.63"/>
<ellipse fill="none" stroke="black" cx="363" cy="-240.213" rx="4" ry="4"/>
<polygon fill="black" stroke="black" points="363,-215.57 367.5,-205.57 363,-210.57 363,-205.57 363,-205.57 363,-205.57 363,-210.57 358.5,-205.57 363,-215.57 363,-215.57"/>
</g>
<!-- Similarity -->
<g id="node8" class="node"><title>Similarity</title>
<ellipse fill="none" stroke="black" cx="363" cy="-95" rx="57.9828" ry="18.3848"/>
<text text-anchor="middle" x="363" y="-91.4" font-family="Times Roman,serif" font-size="14.00">Similarity</text>
</g>
<!-- SourceCode&#45;&gt;Similarity -->
<g id="edge8" class="edge"><title>SourceCode&#45;&gt;Similarity</title>
<path fill="none" stroke="black" d="M326.808,-164.506C322.448,-160.239 318.619,-155.395 316,-150 310.262,-138.18 317.061,-126.836 327.11,-117.553"/>
<ellipse fill="none" stroke="black" cx="330.015" cy="-167.323" rx="4.00002" ry="4.00002"/>
<polygon fill="black" stroke="black" points="327.141,-117.528 337.725,-114.658 331.005,-114.354 334.868,-111.18 334.868,-111.18 334.868,-111.18 331.005,-114.354 332.012,-107.703 327.141,-117.528 327.141,-117.528"/>
<text text-anchor="middle" x="352.5" y="-137.4" font-family="Times Roman,serif" font-size="14.00">similarity1</text>
</g>
<!-- SourceCode&#45;&gt;Similarity -->
<g id="edge10" class="edge"><title>SourceCode&#45;&gt;Similarity</title>
<path fill="none" stroke="black" d="M383.676,-161.716C385.852,-157.97 387.731,-154.014 389,-150 391.412,-142.372 391.412,-139.628 389,-132 387.868,-128.421 386.252,-124.888 384.372,-121.509"/>
<ellipse fill="none" stroke="black" cx="381.378" cy="-165.264" rx="4.00002" ry="4.00002"/>
<polygon fill="black" stroke="black" points="384.318,-121.424 382.723,-110.574 381.625,-117.211 378.932,-112.998 378.932,-112.998 378.932,-112.998 381.625,-117.211 375.14,-115.422 384.318,-121.424 384.318,-121.424"/>
<text text-anchor="middle" x="426.5" y="-137.4" font-family="Times Roman,serif" font-size="14.00">similarity2</text>
</g>
<!-- Similarity&#45;&gt;Algorithm -->
<g id="edge12" class="edge"><title>Similarity&#45;&gt;Algorithm</title>
<path fill="none" stroke="black" d="M363,-68.0731C363,-61.4485 363,-54.332 363,-47.6302"/>
<ellipse fill="none" stroke="black" cx="363" cy="-72.2135" rx="4" ry="4"/>
<polygon fill="black" stroke="black" points="363,-47.5704 367.5,-37.5704 363,-42.5704 363,-37.5704 363,-37.5704 363,-37.5704 363,-42.5704 358.5,-37.5705 363,-47.5704 363,-47.5704"/>
</g>
</g>
</svg>
