<?xml version="1.0" encoding="UTF-8" standalone="no"?>
<!DOCTYPE svg PUBLIC "-//W3C//DTD SVG 1.1//EN"
 "http://www.w3.org/Graphics/SVG/1.1/DTD/svg11.dtd">
<!-- Generated by graphviz version 2.26.3 (20100126.1600)
 -->
<!-- Title: models_diagram Pages: 1 -->
<svg width="534pt" height="346pt"
 viewBox="0.00 0.00 534.00 346.00" xmlns="http://www.w3.org/2000/svg" xmlns:xlink="http://www.w3.org/1999/xlink">
<g id="graph1" class="graph" transform="scale(1 1) rotate(0) translate(4 342)">
<title>models_diagram</title>
<polygon fill="white" stroke="white" points="-4,5 -4,-342 531,-342 531,5 -4,5"/>
<!-- _diagram_info -->
<g id="node1" class="node"><title>_diagram_info</title>
<text text-anchor="start" x="8" y="-321.8" font-family="Times Roman,serif" font-size="13.00">Models diagram</text>
<text text-anchor="start" x="8" y="-304.8" font-family="Times Roman,serif" font-size="13.00">Date: Dec 03 2011 &#45; 18:16</text>
<text text-anchor="start" x="8" y="-287.8" font-family="Times Roman,serif" font-size="13.00">Migration version: 20111106010434</text>
<text text-anchor="start" x="8" y="-270.8" font-family="Times Roman,serif" font-size="13.00">Generated by RailRoady 1.0.2</text>
<text text-anchor="start" x="8" y="-253.8" font-family="Times Roman,serif" font-size="13.00">http://railroady.prestonlee.com</text>
</g>
<!-- ZipFile -->
<g id="node2" class="node"><title>ZipFile</title>
<polygon fill="none" stroke="black" points="330,-309 268,-309 268,-273 330,-273 330,-309"/>
<text text-anchor="middle" x="299" y="-287.4" font-family="Times Roman,serif" font-size="14.00">ZipFile</text>
</g>
<!-- Course -->
<g id="node3" class="node"><title>Course</title>
<ellipse fill="none" stroke="black" cx="394" cy="-291" rx="45.9619" ry="18.3848"/>
<text text-anchor="middle" x="394" y="-287.4" font-family="Times Roman,serif" font-size="14.00">Course</text>
</g>
<!-- Exercise -->
<g id="node5" class="node"><title>Exercise</title>
<ellipse fill="none" stroke="black" cx="443" cy="-187" rx="51.1176" ry="18.3848"/>
<text text-anchor="middle" x="443" y="-183.4" font-family="Times Roman,serif" font-size="14.00">Exercise</text>
</g>
<!-- Course&#45;&gt;Exercise -->
<g id="edge2" class="edge"><title>Course&#45;&gt;Exercise</title>
<path fill="none" stroke="black" d="M406.312,-264.868C413.54,-249.528 422.666,-230.159 430.008,-214.576"/>
<ellipse fill="none" stroke="black" cx="404.465" cy="-268.788" rx="4.00002" ry="4.00002"/>
<polygon fill="black" stroke="black" points="430.053,-214.478 438.386,-207.35 432.185,-209.955 434.316,-205.432 434.316,-205.432 434.316,-205.432 432.185,-209.955 430.245,-203.514 430.053,-214.478 430.053,-214.478"/>
</g>
<!-- User -->
<g id="node4" class="node"><title>User</title>
<ellipse fill="none" stroke="black" cx="492" cy="-291" rx="33.9411" ry="18.3848"/>
<text text-anchor="middle" x="492" y="-287.4" font-family="Times Roman,serif" font-size="14.00">User</text>
</g>
<!-- User&#45;&gt;Exercise -->
<g id="edge4" class="edge"><title>User&#45;&gt;Exercise</title>
<path fill="none" stroke="black" d="M479.897,-265.312C472.624,-249.874 463.371,-230.236 455.951,-214.488"/>
<ellipse fill="none" stroke="black" cx="481.76" cy="-269.266" rx="4.00002" ry="4.00002"/>
<polygon fill="black" stroke="black" points="455.864,-214.303 455.673,-203.339 453.733,-209.78 451.602,-205.257 451.602,-205.257 451.602,-205.257 453.733,-209.78 447.531,-207.175 455.864,-214.303 455.864,-214.303"/>
</g>
<!-- SourceCode -->
<g id="node6" class="node"><title>SourceCode</title>
<ellipse fill="none" stroke="black" cx="371" cy="-111" rx="68.7979" ry="18.3848"/>
<text text-anchor="middle" x="371" y="-107.4" font-family="Times Roman,serif" font-size="14.00">SourceCode</text>
</g>
<!-- Exercise&#45;&gt;SourceCode -->
<g id="edge6" class="edge"><title>Exercise&#45;&gt;SourceCode</title>
<path fill="none" stroke="black" d="M420.683,-163.443C412.561,-154.87 403.347,-145.145 395.08,-136.417"/>
<ellipse fill="none" stroke="black" cx="423.55" cy="-166.469" rx="4.00002" ry="4.00002"/>
<polygon fill="black" stroke="black" points="394.986,-136.319 391.375,-125.964 391.547,-132.689 388.109,-129.059 388.109,-129.059 388.109,-129.059 391.547,-132.689 384.842,-132.154 394.986,-136.319 394.986,-136.319"/>
</g>
<!-- Similarity -->
<g id="node7" class="node"><title>Similarity</title>
<ellipse fill="none" stroke="black" cx="380" cy="-19" rx="57.9828" ry="18.3848"/>
<text text-anchor="middle" x="380" y="-15.4" font-family="Times Roman,serif" font-size="14.00">Similarity</text>
</g>
<!-- Exercise&#45;&gt;Similarity -->
<g id="edge8" class="edge"><title>Exercise&#45;&gt;Similarity</title>
<path fill="none" stroke="black" d="M453.562,-160.665C462.989,-132.578 472.559,-87.8406 453,-56 447.977,-47.8231 440.524,-41.3854 432.272,-36.3384"/>
<ellipse fill="none" stroke="black" cx="452.136" cy="-164.697" rx="4.00001" ry="4.00001"/>
<polygon fill="black" stroke="black" points="432.247,-36.3252 425.592,-27.6096 427.849,-33.9464 423.451,-31.5677 423.451,-31.5677 423.451,-31.5677 427.849,-33.9464 421.31,-35.5258 432.247,-36.3252 432.247,-36.3252"/>
</g>
<!-- SourceCode&#45;&gt;Similarity -->
<g id="edge10" class="edge"><title>SourceCode&#45;&gt;Similarity</title>
<path fill="none" stroke="black" d="M312.763,-95.367C290.589,-86.3299 273.182,-73.2849 285,-56 290.317,-48.2235 307.637,-40.517 326.059,-34.1667"/>
<ellipse fill="none" stroke="black" cx="316.691" cy="-96.8584" rx="4.00001" ry="4.00001"/>
<polygon fill="black" stroke="black" points="326.238,-34.1077 337.144,-35.2501 330.987,-32.5421 335.735,-30.9764 335.735,-30.9764 335.735,-30.9764 330.987,-32.5421 334.326,-26.7027 326.238,-34.1077 326.238,-34.1077"/>
<text text-anchor="middle" x="321.5" y="-61.4" font-family="Times Roman,serif" font-size="14.00">similarity1</text>
</g>
<!-- SourceCode&#45;&gt;Similarity -->
<g id="edge12" class="edge"><title>SourceCode&#45;&gt;Similarity</title>
<path fill="none" stroke="black" d="M373.638,-84.029C374.757,-72.5994 376.061,-59.2671 377.196,-47.6601"/>
<ellipse fill="none" stroke="black" cx="373.211" cy="-88.4014" rx="4" ry="4"/>
<polygon fill="black" stroke="black" points="377.208,-47.5424 382.66,-38.0281 377.695,-42.5661 378.181,-37.5899 378.181,-37.5899 378.181,-37.5899 377.695,-42.5661 373.703,-37.1517 377.208,-47.5424 377.208,-47.5424"/>
<text text-anchor="middle" x="412.5" y="-61.4" font-family="Times Roman,serif" font-size="14.00">similarity2</text>
</g>
</g>
</svg>
