<?xml version="1.0" encoding="UTF-8" standalone="no"?>
<!DOCTYPE svg PUBLIC "-//W3C//DTD SVG 1.1//EN"
 "http://www.w3.org/Graphics/SVG/1.1/DTD/svg11.dtd">
<!-- Generated by graphviz version 2.26.3 (20100126.1600)
 -->
<!-- Title: models_diagram Pages: 1 -->
<svg width="628pt" height="624pt"
 viewBox="0.00 0.00 628.00 624.00" xmlns="http://www.w3.org/2000/svg" xmlns:xlink="http://www.w3.org/1999/xlink">
<g id="graph1" class="graph" transform="scale(1 1) rotate(0) translate(4 620)">
<title>models_diagram</title>
<polygon fill="white" stroke="white" points="-4,5 -4,-620 625,-620 625,5 -4,5"/>
<!-- _diagram_info -->
<g id="node1" class="node"><title>_diagram_info</title>
<text text-anchor="start" x="8" y="-565.8" font-family="Times Roman,serif" font-size="13.00">Models diagram</text>
<text text-anchor="start" x="8" y="-548.8" font-family="Times Roman,serif" font-size="13.00">Date: Oct 07 2011 &#45; 11:44</text>
<text text-anchor="start" x="8" y="-531.8" font-family="Times Roman,serif" font-size="13.00">Migration version: 20111007162417</text>
<text text-anchor="start" x="8" y="-514.8" font-family="Times Roman,serif" font-size="13.00">Generated by RailRoady 1.0.2</text>
<text text-anchor="start" x="8" y="-497.8" font-family="Times Roman,serif" font-size="13.00">http://railroady.prestonlee.com</text>
</g>
<!-- Course -->
<g id="node2" class="node"><title>Course</title>
<polyline fill="none" stroke="black" points="279.5,-482 420.5,-482 "/>
<path fill="none" stroke="black" d="M420.5,-482C426.5,-482 432.5,-488 432.5,-494"/>
<polyline fill="none" stroke="black" points="432.5,-494 432.5,-576 "/>
<path fill="none" stroke="black" d="M432.5,-576C432.5,-582 426.5,-588 420.5,-588"/>
<polyline fill="none" stroke="black" points="420.5,-588 279.5,-588 "/>
<path fill="none" stroke="black" d="M279.5,-588C273.5,-588 267.5,-582 267.5,-576"/>
<polyline fill="none" stroke="black" points="267.5,-576 267.5,-494 "/>
<path fill="none" stroke="black" d="M267.5,-494C267.5,-488 273.5,-482 279.5,-482"/>
<text text-anchor="middle" x="350" y="-571.4" font-family="Times Roman,serif" font-size="14.00">Course</text>
<polyline fill="none" stroke="black" points="267.5,-562 432.5,-562 "/>
<text text-anchor="start" x="275.5" y="-545.4" font-family="Times Roman,serif" font-size="14.00">name :string</text>
<text text-anchor="start" x="275.5" y="-527.4" font-family="Times Roman,serif" font-size="14.00">courseid :string</text>
<text text-anchor="start" x="275.5" y="-509.4" font-family="Times Roman,serif" font-size="14.00">created_at :datetime</text>
<text text-anchor="start" x="275.5" y="-491.4" font-family="Times Roman,serif" font-size="14.00">updated_at :datetime</text>
</g>
<!-- Exercise -->
<g id="node4" class="node"><title>Exercise</title>
<polyline fill="none" stroke="black" points="362.5,-291 521.5,-291 "/>
<path fill="none" stroke="black" d="M521.5,-291C527.5,-291 533.5,-297 533.5,-303"/>
<polyline fill="none" stroke="black" points="533.5,-303 533.5,-403 "/>
<path fill="none" stroke="black" d="M533.5,-403C533.5,-409 527.5,-415 521.5,-415"/>
<polyline fill="none" stroke="black" points="521.5,-415 362.5,-415 "/>
<path fill="none" stroke="black" d="M362.5,-415C356.5,-415 350.5,-409 350.5,-403"/>
<polyline fill="none" stroke="black" points="350.5,-403 350.5,-303 "/>
<path fill="none" stroke="black" d="M350.5,-303C350.5,-297 356.5,-291 362.5,-291"/>
<text text-anchor="middle" x="442" y="-398.4" font-family="Times Roman,serif" font-size="14.00">Exercise</text>
<polyline fill="none" stroke="black" points="350.5,-389 533.5,-389 "/>
<text text-anchor="start" x="358.5" y="-372.4" font-family="Times Roman,serif" font-size="14.00">name :string</text>
<text text-anchor="start" x="358.5" y="-354.4" font-family="Times Roman,serif" font-size="14.00">description :text</text>
<text text-anchor="start" x="358.5" y="-336.4" font-family="Times Roman,serif" font-size="14.00">similarity_avarage :float</text>
<text text-anchor="start" x="358.5" y="-318.4" font-family="Times Roman,serif" font-size="14.00">created_at :datetime</text>
<text text-anchor="start" x="358.5" y="-300.4" font-family="Times Roman,serif" font-size="14.00">updated_at :datetime</text>
</g>
<!-- Course&#45;&gt;Exercise -->
<g id="edge2" class="edge"><title>Course&#45;&gt;Exercise</title>
<path fill="none" stroke="black" d="M380.503,-474.657C388.65,-458.541 397.53,-440.973 405.944,-424.327"/>
<ellipse fill="none" stroke="black" cx="378.662" cy="-478.299" rx="4.00002" ry="4.00002"/>
<polygon fill="black" stroke="black" points="406.052,-424.114 414.58,-417.22 408.308,-419.652 410.563,-415.19 410.563,-415.19 410.563,-415.19 408.308,-419.652 406.547,-413.159 406.052,-424.114 406.052,-424.114"/>
</g>
<!-- User -->
<g id="node3" class="node"><title>User</title>
<polyline fill="none" stroke="black" points="461.5,-455 608.5,-455 "/>
<path fill="none" stroke="black" d="M608.5,-455C614.5,-455 620.5,-461 620.5,-467"/>
<polyline fill="none" stroke="black" points="620.5,-467 620.5,-603 "/>
<path fill="none" stroke="black" d="M620.5,-603C620.5,-609 614.5,-615 608.5,-615"/>
<polyline fill="none" stroke="black" points="608.5,-615 461.5,-615 "/>
<path fill="none" stroke="black" d="M461.5,-615C455.5,-615 449.5,-609 449.5,-603"/>
<polyline fill="none" stroke="black" points="449.5,-603 449.5,-467 "/>
<path fill="none" stroke="black" d="M449.5,-467C449.5,-461 455.5,-455 461.5,-455"/>
<text text-anchor="middle" x="535" y="-598.4" font-family="Times Roman,serif" font-size="14.00">User</text>
<polyline fill="none" stroke="black" points="449.5,-589 620.5,-589 "/>
<text text-anchor="start" x="457.5" y="-572.4" font-family="Times Roman,serif" font-size="14.00">email :string</text>
<text text-anchor="start" x="457.5" y="-554.4" font-family="Times Roman,serif" font-size="14.00">first_name :string</text>
<text text-anchor="start" x="457.5" y="-536.4" font-family="Times Roman,serif" font-size="14.00">last_name :string</text>
<text text-anchor="start" x="457.5" y="-518.4" font-family="Times Roman,serif" font-size="14.00">password_hash :string</text>
<text text-anchor="start" x="457.5" y="-500.4" font-family="Times Roman,serif" font-size="14.00">password_salt :string</text>
<text text-anchor="start" x="457.5" y="-482.4" font-family="Times Roman,serif" font-size="14.00">created_at :datetime</text>
<text text-anchor="start" x="457.5" y="-464.4" font-family="Times Roman,serif" font-size="14.00">updated_at :datetime</text>
</g>
<!-- User&#45;&gt;Exercise -->
<g id="edge4" class="edge"><title>User&#45;&gt;Exercise</title>
<path fill="none" stroke="black" d="M490.384,-447.686C486.338,-439.769 482.273,-431.815 478.313,-424.063"/>
<ellipse fill="none" stroke="black" cx="492.253" cy="-451.345" rx="4.00002" ry="4.00002"/>
<polygon fill="black" stroke="black" points="478.268,-423.976 477.725,-413.024 475.993,-419.524 473.718,-415.071 473.718,-415.071 473.718,-415.071 475.993,-419.524 469.711,-417.119 478.268,-423.976 478.268,-423.976"/>
</g>
<!-- SourceCode -->
<g id="node5" class="node"><title>SourceCode</title>
<polyline fill="none" stroke="black" points="371.5,-181 512.5,-181 "/>
<path fill="none" stroke="black" d="M512.5,-181C518.5,-181 524.5,-187 524.5,-193"/>
<polyline fill="none" stroke="black" points="524.5,-193 524.5,-239 "/>
<path fill="none" stroke="black" d="M524.5,-239C524.5,-245 518.5,-251 512.5,-251"/>
<polyline fill="none" stroke="black" points="512.5,-251 371.5,-251 "/>
<path fill="none" stroke="black" d="M371.5,-251C365.5,-251 359.5,-245 359.5,-239"/>
<polyline fill="none" stroke="black" points="359.5,-239 359.5,-193 "/>
<path fill="none" stroke="black" d="M359.5,-193C359.5,-187 365.5,-181 371.5,-181"/>
<text text-anchor="middle" x="442" y="-234.4" font-family="Times Roman,serif" font-size="14.00">SourceCode</text>
<polyline fill="none" stroke="black" points="359.5,-225 524.5,-225 "/>
<text text-anchor="start" x="367.5" y="-208.4" font-family="Times Roman,serif" font-size="14.00">created_at :datetime</text>
<text text-anchor="start" x="367.5" y="-190.4" font-family="Times Roman,serif" font-size="14.00">updated_at :datetime</text>
</g>
<!-- Exercise&#45;&gt;SourceCode -->
<g id="edge6" class="edge"><title>Exercise&#45;&gt;SourceCode</title>
<path fill="none" stroke="black" d="M442,-282.606C442,-275.472 442,-268.366 442,-261.596"/>
<ellipse fill="none" stroke="black" cx="442" cy="-286.914" rx="4" ry="4"/>
<polygon fill="black" stroke="black" points="442,-261.281 446.5,-251.281 442,-256.281 442,-251.281 442,-251.281 442,-251.281 442,-256.281 437.5,-251.281 442,-261.281 442,-261.281"/>
</g>
<!-- Similarity -->
<g id="node6" class="node"><title>Similarity</title>
<polyline fill="none" stroke="black" points="368.5,-1 515.5,-1 "/>
<path fill="none" stroke="black" d="M515.5,-1C521.5,-1 527.5,-7 527.5,-13"/>
<polyline fill="none" stroke="black" points="527.5,-13 527.5,-113 "/>
<path fill="none" stroke="black" d="M527.5,-113C527.5,-119 521.5,-125 515.5,-125"/>
<polyline fill="none" stroke="black" points="515.5,-125 368.5,-125 "/>
<path fill="none" stroke="black" d="M368.5,-125C362.5,-125 356.5,-119 356.5,-113"/>
<polyline fill="none" stroke="black" points="356.5,-113 356.5,-13 "/>
<path fill="none" stroke="black" d="M356.5,-13C356.5,-7 362.5,-1 368.5,-1"/>
<text text-anchor="middle" x="442" y="-108.4" font-family="Times Roman,serif" font-size="14.00">Similarity</text>
<polyline fill="none" stroke="black" points="356.5,-99 527.5,-99 "/>
<text text-anchor="start" x="364.5" y="-82.4" font-family="Times Roman,serif" font-size="14.00">similarity :float</text>
<text text-anchor="start" x="364.5" y="-64.4" font-family="Times Roman,serif" font-size="14.00">mar :float</text>
<text text-anchor="start" x="364.5" y="-46.4" font-family="Times Roman,serif" font-size="14.00">used_algorithm :string</text>
<text text-anchor="start" x="364.5" y="-28.4" font-family="Times Roman,serif" font-size="14.00">created_at :datetime</text>
<text text-anchor="start" x="364.5" y="-10.4" font-family="Times Roman,serif" font-size="14.00">updated_at :datetime</text>
</g>
<!-- SourceCode&#45;&gt;Similarity -->
<g id="edge8" class="edge"><title>SourceCode&#45;&gt;Similarity</title>
<path fill="none" stroke="black" d="M400.927,-174.065C398.582,-170.185 396.552,-166.147 395,-162 391.67,-153.102 391.427,-143.908 393.195,-134.872"/>
<ellipse fill="none" stroke="black" cx="403.238" cy="-177.537" rx="4.00002" ry="4.00002"/>
<polygon fill="black" stroke="black" points="393.215,-134.798 400.191,-126.337 394.533,-129.974 395.85,-125.151 395.85,-125.151 395.85,-125.151 394.533,-129.974 391.509,-123.965 393.215,-134.798 393.215,-134.798"/>
<text text-anchor="middle" x="431.5" y="-149.4" font-family="Times Roman,serif" font-size="14.00">similarity1</text>
</g>
<!-- SourceCode&#45;&gt;Similarity -->
<g id="edge10" class="edge"><title>SourceCode&#45;&gt;Similarity</title>
<path fill="none" stroke="black" d="M464.668,-173.241C466.003,-169.511 467.148,-165.734 468,-162 469.982,-153.315 470.191,-144.234 469.245,-135.247"/>
<ellipse fill="none" stroke="black" cx="463.156" cy="-177.082" rx="4.00001" ry="4.00001"/>
<polygon fill="black" stroke="black" points="469.215,-135.052 472.168,-124.492 468.467,-130.109 467.719,-125.165 467.719,-125.165 467.719,-125.165 468.467,-130.109 463.269,-125.839 469.215,-135.052 469.215,-135.052"/>
<text text-anchor="middle" x="505.5" y="-149.4" font-family="Times Roman,serif" font-size="14.00">similarity2</text>
</g>
</g>
</svg>
